<?xml version="1.0" encoding="UTF-8"?>
<!DOCTYPE svg PUBLIC "-//W3C//DTD SVG 1.1//EN" "http://www.w3.org/Graphics/SVG/1.1/DTD/svg11.dtd">
<svg xmlns="http://www.w3.org/2000/svg" version="1.1" width="409px" height="610px" style="shape-rendering:geometricPrecision; text-rendering:geometricPrecision; image-rendering:optimizeQuality; fill-rule:evenodd; clip-rule:evenodd" xmlns:xlink="http://www.w3.org/1999/xlink">
<g><path style="opacity:1" fill="#f1f5f7" d="M 83.5,424.5 C 82.1756,344.838 82.1756,265.171 83.5,185.5C 86.6882,154.439 100.022,128.606 123.5,108C 175.101,70.0214 227.434,69.0214 280.5,105C 308.359,128.159 323.526,157.992 326,194.5C 326.667,267.5 326.667,340.5 326,413.5C 324.002,452.599 307.502,483.765 276.5,507C 242.768,530.138 206.101,536.138 166.5,525C 123.014,509.51 95.5141,479.343 84,434.5C 83.5017,431.183 83.335,427.85 83.5,424.5 Z"/></g>
<g><path style="opacity:1" fill="#1494ef" d="M 245.5,105.5 C 247.853,106.34 249.853,107.674 251.5,109.5C 248.413,109.457 245.413,109.29 242.5,109C 245.035,110.913 244.535,112.08 241,112.5C 239.208,111.963 237.375,111.63 235.5,111.5C 231.746,112.657 227.913,113.657 224,114.5C 222.172,112.597 222.339,110.764 224.5,109C 221.273,108.881 218.273,109.715 215.5,111.5C 216.651,112.731 217.817,112.731 219,111.5C 219.667,112.5 219.667,113.5 219,114.5C 217.172,116.081 215.172,117.415 213,118.5C 212.517,119.448 212.351,120.448 212.5,121.5C 209.213,122.6 206.213,124.267 203.5,126.5C 204.326,127.451 204.492,128.451 204,129.5C 202.622,131.213 200.955,132.547 199,133.5C 198.326,135.517 197.159,137.183 195.5,138.5C 195.709,139.086 196.043,139.586 196.5,140C 195.034,140.635 193.7,141.469 192.5,142.5C 191.304,142.154 191.304,141.654 192.5,141C 190.191,141.924 188.524,141.091 187.5,138.5C 188.825,137.047 189.658,137.381 190,139.5C 191.622,136.841 190.789,134.841 187.5,133.5C 189.599,130.016 192.099,129.682 195,132.5C 196.529,131.271 197.696,129.771 198.5,128C 197.833,127.667 197.167,127.333 196.5,127C 198.516,126.101 200.183,124.767 201.5,123C 198.336,121.17 197.669,118.67 199.5,115.5C 198.342,114.427 198.342,113.261 199.5,112C 197.811,110.642 196.478,108.975 195.5,107C 196.667,105.167 198.167,103.667 200,102.5C 201.343,103.214 202.676,102.88 204,101.5C 204.833,102.5 205.667,103.5 206.5,104.5C 207.5,103.5 208.5,102.5 209.5,101.5C 214.969,99.9773 220.302,98.9773 225.5,98.5C 229.949,99.5424 233.949,101.542 237.5,104.5C 239.064,103.814 240.731,103.981 242.5,105C 242.167,105.333 241.833,105.667 241.5,106C 243.066,106.765 244.399,106.598 245.5,105.5 Z"/></g>
<g><path style="opacity:1" fill="#1189ea" d="M 251.5,109.5 C 252.271,111.114 253.271,112.614 254.5,114C 254.354,115.727 253.687,115.894 252.5,114.5C 251.749,115.376 251.249,116.376 251,117.5C 241.108,114.869 231.941,116.703 223.5,123C 225.767,124.081 225.934,125.581 224,127.5C 223.667,127.167 223.333,126.833 223,126.5C 221.333,127.167 219.667,127.833 218,128.5C 212.465,138.252 205.965,147.252 198.5,155.5C 197.571,156.689 197.238,158.022 197.5,159.5C 195.5,159.5 193.5,159.5 191.5,159.5C 191.5,160.833 191.5,162.167 191.5,163.5C 185.844,163.867 184.011,166.867 186,172.5C 186.333,171.833 186.667,171.167 187,170.5C 187.494,172.134 187.66,173.801 187.5,175.5C 185.396,175.201 183.396,175.534 181.5,176.5C 178.064,180.633 175.398,185.299 173.5,190.5C 170.242,192.136 168.408,194.803 168,198.5C 167.333,197.167 166.667,197.167 166,198.5C 165.333,201.167 164.667,203.833 164,206.5C 161.029,212.844 157.529,219.011 153.5,225C 151.105,230.712 150.105,236.545 150.5,242.5C 151.506,242.062 151.506,241.396 150.5,240.5C 152.074,239.369 153.741,239.202 155.5,240C 154.833,240.333 154.167,240.667 153.5,241C 155.586,241.315 157.586,241.815 159.5,242.5C 158.89,243.391 158.557,244.391 158.5,245.5C 156.011,245.298 153.677,245.798 151.5,247C 179.632,251.039 196.632,266.872 202.5,294.5C 202.167,294.5 201.833,294.5 201.5,294.5C 200.736,291.982 199.736,289.649 198.5,287.5C 196.939,286.752 195.605,285.586 194.5,284C 196.855,282.135 197.022,279.969 195,277.5C 193.992,277.018 192.825,276.852 191.5,277C 189.957,275.122 188.124,273.622 186,272.5C 186.218,270.413 186.051,268.413 185.5,266.5C 180.898,271.054 178.398,270.054 178,263.5C 177.617,264.056 177.117,264.389 176.5,264.5C 173.305,261.148 169.638,258.315 165.5,256C 166.449,255.383 167.282,255.549 168,256.5C 168.483,255.552 168.649,254.552 168.5,253.5C 165.675,253.919 163.509,252.919 162,250.5C 158.624,251.365 155.29,251.032 152,249.5C 150.992,251.259 149.492,252.426 147.5,253C 147.957,253.414 148.291,253.914 148.5,254.5C 146.297,256.295 145.131,258.629 145,261.5C 144.667,261.167 144.333,260.833 144,260.5C 143.333,277.833 143.333,295.167 144,312.5C 146.269,314.269 148.602,314.935 151,314.5C 153.351,315.714 155.851,316.548 158.5,317C 157.263,317.232 156.263,317.732 155.5,318.5C 151.188,317.674 147.021,316.34 143,314.5C 142.5,295.836 142.333,277.17 142.5,258.5C 143.33,249.009 143.83,239.342 144,229.5C 147.086,220.241 150.086,210.575 153,200.5C 153.667,197.833 153.667,195.167 153,192.5C 152.111,193.888 151.611,193.722 151.5,192C 153.101,188.751 153.934,185.251 154,181.5C 154.498,184.482 154.665,187.482 154.5,190.5C 155.5,190.5 156.5,190.5 157.5,190.5C 157.321,185.849 157.321,181.349 157.5,177C 155.74,176.035 155.406,174.868 156.5,173.5C 157.167,174.167 157.833,174.833 158.5,175.5C 160.149,174.352 161.649,173.019 163,171.5C 167.321,165.535 171.155,159.202 174.5,152.5C 178.966,147.236 183.299,142.57 187.5,138.5C 188.524,141.091 190.191,141.924 192.5,141C 191.304,141.654 191.304,142.154 192.5,142.5C 193.7,141.469 195.034,140.635 196.5,140C 196.043,139.586 195.709,139.086 195.5,138.5C 197.159,137.183 198.326,135.517 199,133.5C 200.955,132.547 202.622,131.213 204,129.5C 204.492,128.451 204.326,127.451 203.5,126.5C 206.213,124.267 209.213,122.6 212.5,121.5C 212.351,120.448 212.517,119.448 213,118.5C 215.172,117.415 217.172,116.081 219,114.5C 219.667,113.5 219.667,112.5 219,111.5C 217.817,112.731 216.651,112.731 215.5,111.5C 218.273,109.715 221.273,108.881 224.5,109C 222.339,110.764 222.172,112.597 224,114.5C 227.913,113.657 231.746,112.657 235.5,111.5C 237.375,111.63 239.208,111.963 241,112.5C 244.535,112.08 245.035,110.913 242.5,109C 245.413,109.29 248.413,109.457 251.5,109.5 Z"/></g>
<g><path style="opacity:1" fill="#3ab5f1" d="M 220.5,96.5 C 211.765,96.1241 203.098,96.6241 194.5,98C 192.631,99.5013 190.797,101.001 189,102.5C 188.667,102.167 188.333,101.833 188,101.5C 185.805,103.544 185.305,105.877 186.5,108.5C 188.541,109.236 190.541,110.069 192.5,111C 193.252,111.671 193.586,112.504 193.5,113.5C 191.497,111.985 189.163,111.319 186.5,111.5C 181.781,112.013 177.114,112.846 172.5,114C 163.542,117.485 155.209,121.985 147.5,127.5C 146.022,127.238 144.689,127.571 143.5,128.5C 139.945,132.3 136.112,135.633 132,138.5C 128,136.824 127.834,134.49 131.5,131.5C 131.291,130.914 130.957,130.414 130.5,130C 132.053,128.903 133.386,127.57 134.5,126C 134.167,125.667 133.833,125.333 133.5,125C 134.191,123.933 134.691,122.766 135,121.5C 144.415,112.9 155.415,109.234 168,110.5C 168.785,108.714 169.951,107.214 171.5,106C 168.166,104.788 165.666,105.621 164,108.5C 162.887,107.289 161.72,107.289 160.5,108.5C 158.3,107.675 157.966,106.342 159.5,104.5C 173.163,97.546 187.829,94.2127 203.5,94.5C 209.401,94.4021 215.067,95.0687 220.5,96.5 Z"/></g>
<g><path style="opacity:1" fill="#f2f8f9" d="M 193.5,113.5 C 193.799,115.604 193.466,117.604 192.5,119.5C 161.698,137.176 144.864,163.842 142,199.5C 141.5,214.163 141.333,228.83 141.5,243.5C 140.691,245.292 140.191,247.292 140,249.5C 139.536,248.906 139.369,248.239 139.5,247.5C 139.863,239.429 139.363,231.429 138,223.5C 137.667,224.833 137.333,226.167 137,227.5C 136.562,224.624 135.562,221.957 134,219.5C 133.605,221.179 133.772,222.845 134.5,224.5C 134.224,226.33 133.557,227.997 132.5,229.5C 131.851,227.376 131.017,225.376 130,223.5C 127.222,230.885 125.389,230.885 124.5,223.5C 124.677,226.727 123.01,229.06 119.5,230.5C 118.914,230.291 118.414,229.957 118,229.5C 117.667,226.833 117.333,224.167 117,221.5C 116.667,221.833 116.333,222.167 116,222.5C 114.986,231.627 114.152,240.627 113.5,249.5C 113.5,230.167 113.5,210.833 113.5,191.5C 113.336,188.813 113.503,186.146 114,183.5C 116.98,172.9 120.48,162.567 124.5,152.5C 131.487,143.514 139.153,135.181 147.5,127.5C 155.209,121.985 163.542,117.485 172.5,114C 177.114,112.846 181.781,112.013 186.5,111.5C 189.163,111.319 191.497,111.985 193.5,113.5 Z"/></g>
<g><path style="opacity:1" fill="#0782e7" d="M 245.5,105.5 C 245.842,104.662 246.508,104.328 247.5,104.5C 257.684,108.418 266.684,114.084 274.5,121.5C 270.715,121.628 267.549,120.294 265,117.5C 263.812,118.563 263.312,119.897 263.5,121.5C 262.778,121.082 262.278,120.416 262,119.5C 261.667,120.5 261.333,121.5 261,122.5C 260.667,122.167 260.333,121.833 260,121.5C 258.383,122.851 257.216,124.518 256.5,126.5C 252.249,124.856 248.415,125.522 245,128.5C 244,128.167 243,127.833 242,127.5C 239.835,129.653 239.002,132.319 239.5,135.5C 237.5,135.5 235.5,135.5 233.5,135.5C 233.276,141.609 231.609,147.275 228.5,152.5C 227.28,151.289 226.113,151.289 225,152.5C 224.28,154.112 224.446,155.612 225.5,157C 224.833,157.667 224.167,158.333 223.5,159C 220.833,159.333 218.167,159.667 215.5,160C 214.547,164.715 212.214,168.548 208.5,171.5C 207.749,170.624 207.249,169.624 207,168.5C 202.894,172.058 203.061,174.724 207.5,176.5C 206.675,177.386 205.675,177.719 204.5,177.5C 204.778,179.346 204.111,180.68 202.5,181.5C 200.579,176.508 199.579,176.508 199.5,181.5C 196.927,182.493 194.26,183.326 191.5,184C 202.122,186.448 202.122,188.615 191.5,190.5C 191.338,192.527 191.505,194.527 192,196.5C 193.011,195.663 194.178,195.33 195.5,195.5C 196.461,203.127 197.628,202.794 199,194.5C 199.383,195.056 199.883,195.389 200.5,195.5C 200.663,202.055 198.663,207.721 194.5,212.5C 192.795,210.445 191.128,210.778 189.5,213.5C 190.922,213.588 192.422,213.588 194,213.5C 194.49,214.793 194.657,216.127 194.5,217.5C 193.178,217.33 192.011,217.663 191,218.5C 189.513,217.747 189.346,216.914 190.5,216C 188.763,215.388 187.763,216.054 187.5,218C 187.905,218.945 188.572,219.612 189.5,220C 185.15,224.419 181.15,228.419 177.5,232C 175.324,232.163 173.491,232.996 172,234.5C 171.667,234.167 171.333,233.833 171,233.5C 170.667,234.833 170.333,236.167 170,237.5C 169.667,236.833 169.333,236.167 169,235.5C 168.751,236.624 168.251,237.624 167.5,238.5C 164.745,239.877 162.079,241.211 159.5,242.5C 157.586,241.815 155.586,241.315 153.5,241C 154.167,240.667 154.833,240.333 155.5,240C 153.741,239.202 152.074,239.369 150.5,240.5C 151.506,241.396 151.506,242.062 150.5,242.5C 150.105,236.545 151.105,230.712 153.5,225C 157.529,219.011 161.029,212.844 164,206.5C 164.667,203.833 165.333,201.167 166,198.5C 166.667,197.167 167.333,197.167 168,198.5C 168.408,194.803 170.242,192.136 173.5,190.5C 175.398,185.299 178.064,180.633 181.5,176.5C 183.396,175.534 185.396,175.201 187.5,175.5C 187.66,173.801 187.494,172.134 187,170.5C 186.667,171.167 186.333,171.833 186,172.5C 184.011,166.867 185.844,163.867 191.5,163.5C 191.5,162.167 191.5,160.833 191.5,159.5C 193.5,159.5 195.5,159.5 197.5,159.5C 197.238,158.022 197.571,156.689 198.5,155.5C 205.965,147.252 212.465,138.252 218,128.5C 219.667,127.833 221.333,127.167 223,126.5C 223.333,126.833 223.667,127.167 224,127.5C 225.934,125.581 225.767,124.081 223.5,123C 231.941,116.703 241.108,114.869 251,117.5C 251.249,116.376 251.749,115.376 252.5,114.5C 253.687,115.894 254.354,115.727 254.5,114C 253.271,112.614 252.271,111.114 251.5,109.5C 249.853,107.674 247.853,106.34 245.5,105.5 Z"/></g>
<g><path style="opacity:1" fill="#077be5" d="M 263.5,121.5 C 267.131,128.776 271.131,135.776 275.5,142.5C 278.644,150.934 280.977,159.6 282.5,168.5C 276.191,164.111 270.691,165.111 266,171.5C 265.386,173.313 265.719,173.647 267,172.5C 267.5,173 268,173.5 268.5,174C 267.207,174.49 265.873,174.657 264.5,174.5C 264.481,176.06 264.148,177.56 263.5,179C 264.977,185.412 265.644,191.912 265.5,198.5C 263.644,194.265 262.477,189.598 262,184.5C 261.667,184.833 261.333,185.167 261,185.5C 260.751,184.376 260.251,183.376 259.5,182.5C 258.003,176.956 256.503,171.956 255,167.5C 254.085,168.328 253.419,169.328 253,170.5C 251.14,168.64 249.306,166.806 247.5,165C 250.722,161.705 250.055,159.538 245.5,158.5C 248.154,156.428 247.82,154.761 244.5,153.5C 243.557,156.4 241.89,158.733 239.5,160.5C 241.197,164.936 242.031,169.603 242,174.5C 244.484,171.741 245.65,172.074 245.5,175.5C 243.833,175.5 242.167,175.5 240.5,175.5C 240.002,172.513 239.502,169.513 239,166.5C 234.816,168.177 232.316,171.177 231.5,175.5C 221.434,178.277 216.767,184.943 217.5,195.5C 212.986,195.693 211.653,197.86 213.5,202C 214.549,202.492 215.549,202.326 216.5,201.5C 217.713,199.359 218.879,196.692 220,193.5C 221.011,192.663 222.178,192.33 223.5,192.5C 223.08,190.326 223.08,188.326 223.5,186.5C 226.086,185.52 228.753,185.187 231.5,185.5C 231.292,187.92 231.626,190.253 232.5,192.5C 230.573,194.102 228.406,195.435 226,196.5C 224.798,198.677 224.298,201.011 224.5,203.5C 223.5,203.5 222.5,203.5 221.5,203.5C 221.203,210.968 224.536,215.968 231.5,218.5C 231.622,221.411 231.456,224.411 231,227.5C 231.689,228.357 232.522,229.023 233.5,229.5C 234.5,228.167 235.5,228.167 236.5,229.5C 237.167,230.833 237.833,232.167 238.5,233.5C 239.192,232.975 239.692,232.308 240,231.5C 241.644,234.311 243.81,236.644 246.5,238.5C 247.246,239.736 247.579,241.07 247.5,242.5C 243.525,242.183 240.525,240.349 238.5,237C 234.429,233.967 230.262,230.133 226,225.5C 224.274,226.576 222.441,226.743 220.5,226C 220.833,225.667 221.167,225.333 221.5,225C 218.833,221.333 216.167,217.667 213.5,214C 213.957,213.586 214.291,213.086 214.5,212.5C 212.89,210.269 211.057,208.269 209,206.5C 208.721,201.902 207.221,197.902 204.5,194.5C 204.167,194.5 203.833,194.5 203.5,194.5C 202.391,194.557 201.391,194.89 200.5,195.5C 199.883,195.389 199.383,195.056 199,194.5C 197.628,202.794 196.461,203.127 195.5,195.5C 194.178,195.33 193.011,195.663 192,196.5C 191.505,194.527 191.338,192.527 191.5,190.5C 202.122,188.615 202.122,186.448 191.5,184C 194.26,183.326 196.927,182.493 199.5,181.5C 199.579,176.508 200.579,176.508 202.5,181.5C 204.111,180.68 204.778,179.346 204.5,177.5C 205.675,177.719 206.675,177.386 207.5,176.5C 203.061,174.724 202.894,172.058 207,168.5C 207.249,169.624 207.749,170.624 208.5,171.5C 212.214,168.548 214.547,164.715 215.5,160C 218.167,159.667 220.833,159.333 223.5,159C 224.167,158.333 224.833,157.667 225.5,157C 224.446,155.612 224.28,154.112 225,152.5C 226.113,151.289 227.28,151.289 228.5,152.5C 231.609,147.275 233.276,141.609 233.5,135.5C 235.5,135.5 237.5,135.5 239.5,135.5C 239.002,132.319 239.835,129.653 242,127.5C 243,127.833 244,128.167 245,128.5C 248.415,125.522 252.249,124.856 256.5,126.5C 257.216,124.518 258.383,122.851 260,121.5C 260.333,121.833 260.667,122.167 261,122.5C 261.333,121.5 261.667,120.5 262,119.5C 262.278,120.416 262.778,121.082 263.5,121.5 Z"/></g>
<g><path style="opacity:1" fill="#55baec" d="M 159.5,104.5 C 157.966,106.342 158.3,107.675 160.5,108.5C 161.72,107.289 162.887,107.289 164,108.5C 165.666,105.621 168.166,104.788 171.5,106C 169.951,107.214 168.785,108.714 168,110.5C 155.415,109.234 144.415,112.9 135,121.5C 134.691,122.766 134.191,123.933 133.5,125C 133.833,125.333 134.167,125.667 134.5,126C 133.386,127.57 132.053,128.903 130.5,130C 130.957,130.414 131.291,130.914 131.5,131.5C 127.834,134.49 128,136.824 132,138.5C 136.112,135.633 139.945,132.3 143.5,128.5C 144.689,127.571 146.022,127.238 147.5,127.5C 139.153,135.181 131.487,143.514 124.5,152.5C 124.877,150.742 125.544,149.075 126.5,147.5C 125.754,146.264 125.421,144.93 125.5,143.5C 127.948,143.915 129.281,142.915 129.5,140.5C 128.212,138.793 126.879,137.126 125.5,135.5C 125.085,138.079 123.752,139.913 121.5,141C 121.957,141.414 122.291,141.914 122.5,142.5C 120.508,144.191 119.508,146.025 119.5,148C 119.167,148.167 118.833,148.333 118.5,148.5C 117.813,146.726 116.98,145.059 116,143.5C 116.155,145.811 116.155,148.144 116,150.5C 112.897,153.094 110.397,156.094 108.5,159.5C 109.833,160.5 109.833,161.5 108.5,162.5C 109.167,163.167 109.833,163.833 110.5,164.5C 109.012,166.577 107.012,167.577 104.5,167.5C 104.162,170.157 104.829,172.49 106.5,174.5C 105.024,174.354 103.691,175.187 102.5,177C 100.824,182.047 99.6572,187.213 99,192.5C 98.5001,203.828 98.3335,215.162 98.5,226.5C 98.1669,252.509 98.5002,278.509 99.5,304.5C 100.183,304.863 100.85,305.196 101.5,305.5C 101.5,305.833 101.5,306.167 101.5,306.5C 101.5,306.833 101.5,307.167 101.5,307.5C 100.417,307.461 99.4168,307.127 98.5,306.5C 97.3334,267.504 97.1667,228.504 98,189.5C 103.388,149.997 123.888,121.664 159.5,104.5 Z"/></g>
<g><path style="opacity:1" fill="#3a68b5" d="M 274.5,121.5 C 294.884,139.632 306.55,162.298 309.5,189.5C 309.167,189.5 308.833,189.5 308.5,189.5C 307.012,184.652 306.179,179.652 306,174.5C 304.979,172.03 303.812,169.696 302.5,167.5C 301.206,166.71 300.039,165.71 299,164.5C 298.837,162.324 298.004,160.491 296.5,159C 297.097,157.374 297.097,155.541 296.5,153.5C 295.833,154.5 295.167,155.5 294.5,156.5C 294.167,156.167 293.833,155.833 293.5,155.5C 292.939,153.574 292.773,151.574 293,149.5C 290.767,147.522 289.6,145.355 289.5,143C 288.225,137.392 285.058,133.225 280,130.5C 278.885,128.092 277.218,126.092 275,124.5C 274.517,123.552 274.351,122.552 274.5,121.5 Z"/></g>
<g><path style="opacity:1" fill="#1157b8" d="M 274.5,121.5 C 274.351,122.552 274.517,123.552 275,124.5C 277.218,126.092 278.885,128.092 280,130.5C 285.058,133.225 288.225,137.392 289.5,143C 289.6,145.355 290.767,147.522 293,149.5C 292.773,151.574 292.939,153.574 293.5,155.5C 293.833,155.833 294.167,156.167 294.5,156.5C 295.167,155.5 295.833,154.5 296.5,153.5C 297.097,155.541 297.097,157.374 296.5,159C 298.004,160.491 298.837,162.324 299,164.5C 300.039,165.71 301.206,166.71 302.5,167.5C 302.563,173.513 303.563,179.347 305.5,185C 305.333,186.5 305.167,188 305,189.5C 304.329,188.748 303.496,188.414 302.5,188.5C 301.771,181.257 298.938,174.924 294,169.5C 293.167,167.5 292.333,165.5 291.5,163.5C 286.936,160.786 286.936,157.62 291.5,154C 290.464,152.383 289.297,152.216 288,153.5C 286.163,148.662 283.496,144.328 280,140.5C 278.67,141.582 277.17,142.249 275.5,142.5C 271.131,135.776 267.131,128.776 263.5,121.5C 263.312,119.897 263.812,118.563 265,117.5C 267.549,120.294 270.715,121.628 274.5,121.5 Z"/></g>
<g><path style="opacity:1" fill="#3bb2ef" d="M 124.5,152.5 C 120.48,162.567 116.98,172.9 114,183.5C 113.503,186.146 113.336,188.813 113.5,191.5C 112.505,204.323 112.171,217.323 112.5,230.5C 111.242,222.694 110.408,214.694 110,206.5C 109.667,206.833 109.333,207.167 109,207.5C 108.626,206.584 108.126,205.75 107.5,205C 107.556,201.638 107.556,198.305 107.5,195C 107.396,192.855 108.063,191.021 109.5,189.5C 109.081,188.328 108.415,187.328 107.5,186.5C 106.499,190.504 105.499,194.504 104.5,198.5C 104.833,199.167 105.167,199.833 105.5,200.5C 104.595,202.638 103.595,204.805 102.5,207C 103.517,208.049 103.684,209.216 103,210.5C 102.581,209.328 101.915,208.328 101,207.5C 100.309,214 99.4756,220.334 98.5,226.5C 98.3335,215.162 98.5001,203.828 99,192.5C 99.6572,187.213 100.824,182.047 102.5,177C 103.691,175.187 105.024,174.354 106.5,174.5C 104.829,172.49 104.162,170.157 104.5,167.5C 107.012,167.577 109.012,166.577 110.5,164.5C 109.833,163.833 109.167,163.167 108.5,162.5C 109.833,161.5 109.833,160.5 108.5,159.5C 110.397,156.094 112.897,153.094 116,150.5C 116.155,148.144 116.155,145.811 116,143.5C 116.98,145.059 117.813,146.726 118.5,148.5C 118.833,148.333 119.167,148.167 119.5,148C 119.508,146.025 120.508,144.191 122.5,142.5C 122.291,141.914 121.957,141.414 121.5,141C 123.752,139.913 125.085,138.079 125.5,135.5C 126.879,137.126 128.212,138.793 129.5,140.5C 129.281,142.915 127.948,143.915 125.5,143.5C 125.421,144.93 125.754,146.264 126.5,147.5C 125.544,149.075 124.877,150.742 124.5,152.5 Z"/></g>
<g><path style="opacity:1" fill="#40a7e9" d="M 220.5,96.5 C 230.226,97.1909 239.226,99.8576 247.5,104.5C 246.508,104.328 245.842,104.662 245.5,105.5C 244.399,106.598 243.066,106.765 241.5,106C 241.833,105.667 242.167,105.333 242.5,105C 240.731,103.981 239.064,103.814 237.5,104.5C 233.949,101.542 229.949,99.5424 225.5,98.5C 220.302,98.9773 214.969,99.9773 209.5,101.5C 208.5,102.5 207.5,103.5 206.5,104.5C 205.667,103.5 204.833,102.5 204,101.5C 202.676,102.88 201.343,103.214 200,102.5C 198.167,103.667 196.667,105.167 195.5,107C 196.478,108.975 197.811,110.642 199.5,112C 198.342,113.261 198.342,114.427 199.5,115.5C 198.883,115.611 198.383,115.944 198,116.5C 197.667,115.167 197.333,113.833 197,112.5C 195.815,115.603 195.148,118.603 195,121.5C 191.977,123.212 188.811,124.545 185.5,125.5C 184.447,128.079 183.113,130.579 181.5,133C 179.152,133.11 177.652,134.277 177,136.5C 176.667,135.833 176.333,135.167 176,134.5C 175.781,135.938 175.281,137.271 174.5,138.5C 172.41,137.209 171.076,137.876 170.5,140.5C 172.04,141.532 172.54,142.865 172,144.5C 170.192,144.888 168.525,144.888 167,144.5C 164.961,151.85 161.294,158.183 156,163.5C 155.849,166.119 155.015,168.453 153.5,170.5C 153.833,171.167 154.167,171.833 154.5,172.5C 153.787,174.776 153.287,177.109 153,179.5C 152,180.167 151,180.833 150,181.5C 150.263,180.049 150.096,178.716 149.5,177.5C 148.713,178.242 148.047,179.075 147.5,180C 146.96,183.4 147.627,186.733 149.5,190C 148.518,190.381 147.852,191.214 147.5,192.5C 147.68,193.554 148.013,194.554 148.5,195.5C 148.167,195.833 147.833,196.167 147.5,196.5C 146.749,195.624 146.249,194.624 146,193.5C 145.257,195.441 145.424,197.274 146.5,199C 145.333,199.5 144.5,200.333 144,201.5C 142.718,220.477 142.218,239.477 142.5,258.5C 142.333,277.17 142.5,295.836 143,314.5C 147.021,316.34 151.188,317.674 155.5,318.5C 155.833,318.5 156.167,318.5 156.5,318.5C 158.779,319.651 161.112,320.651 163.5,321.5C 155.873,321.085 148.54,319.752 141.5,317.5C 141.5,292.833 141.5,268.167 141.5,243.5C 141.333,228.83 141.5,214.163 142,199.5C 144.864,163.842 161.698,137.176 192.5,119.5C 193.466,117.604 193.799,115.604 193.5,113.5C 193.586,112.504 193.252,111.671 192.5,111C 190.541,110.069 188.541,109.236 186.5,108.5C 185.305,105.877 185.805,103.544 188,101.5C 188.333,101.833 188.667,102.167 189,102.5C 190.797,101.001 192.631,99.5013 194.5,98C 203.098,96.6241 211.765,96.1241 220.5,96.5 Z"/></g>
<g><path style="opacity:1" fill="#006cdd" d="M 265.5,198.5 C 265.5,198.833 265.5,199.167 265.5,199.5C 265.614,212.257 265.448,225.257 265,238.5C 263.513,239.155 262.347,240.155 261.5,241.5C 263.203,242.89 263.87,244.39 263.5,246C 262.953,246.925 262.287,247.758 261.5,248.5C 260.646,247.478 259.646,246.645 258.5,246C 259.784,244.703 259.617,243.536 258,242.5C 256.556,244.155 254.722,244.822 252.5,244.5C 250.302,244.88 248.635,244.213 247.5,242.5C 247.579,241.07 247.246,239.736 246.5,238.5C 243.81,236.644 241.644,234.311 240,231.5C 239.692,232.308 239.192,232.975 238.5,233.5C 237.833,232.167 237.167,230.833 236.5,229.5C 235.5,228.167 234.5,228.167 233.5,229.5C 232.522,229.023 231.689,228.357 231,227.5C 231.456,224.411 231.622,221.411 231.5,218.5C 224.536,215.968 221.203,210.968 221.5,203.5C 222.5,203.5 223.5,203.5 224.5,203.5C 224.298,201.011 224.798,198.677 226,196.5C 228.406,195.435 230.573,194.102 232.5,192.5C 231.626,190.253 231.292,187.92 231.5,185.5C 228.753,185.187 226.086,185.52 223.5,186.5C 223.08,188.326 223.08,190.326 223.5,192.5C 222.178,192.33 221.011,192.663 220,193.5C 218.879,196.692 217.713,199.359 216.5,201.5C 215.549,202.326 214.549,202.492 213.5,202C 211.653,197.86 212.986,195.693 217.5,195.5C 216.767,184.943 221.434,178.277 231.5,175.5C 232.316,171.177 234.816,168.177 239,166.5C 239.502,169.513 240.002,172.513 240.5,175.5C 242.167,175.5 243.833,175.5 245.5,175.5C 245.65,172.074 244.484,171.741 242,174.5C 242.031,169.603 241.197,164.936 239.5,160.5C 241.89,158.733 243.557,156.4 244.5,153.5C 247.82,154.761 248.154,156.428 245.5,158.5C 250.055,159.538 250.722,161.705 247.5,165C 249.306,166.806 251.14,168.64 253,170.5C 253.419,169.328 254.085,168.328 255,167.5C 256.503,171.956 258.003,176.956 259.5,182.5C 260.251,183.376 260.751,184.376 261,185.5C 261.333,185.167 261.667,184.833 262,184.5C 262.477,189.598 263.644,194.265 265.5,198.5 Z"/></g>
<g><path style="opacity:1" fill="#189aee" d="M 199.5,115.5 C 197.669,118.67 198.336,121.17 201.5,123C 200.183,124.767 198.516,126.101 196.5,127C 197.167,127.333 197.833,127.667 198.5,128C 197.696,129.771 196.529,131.271 195,132.5C 192.099,129.682 189.599,130.016 187.5,133.5C 190.789,134.841 191.622,136.841 190,139.5C 189.658,137.381 188.825,137.047 187.5,138.5C 183.299,142.57 178.966,147.236 174.5,152.5C 171.155,159.202 167.321,165.535 163,171.5C 161.649,173.019 160.149,174.352 158.5,175.5C 157.833,174.833 157.167,174.167 156.5,173.5C 155.406,174.868 155.74,176.035 157.5,177C 157.321,181.349 157.321,185.849 157.5,190.5C 156.5,190.5 155.5,190.5 154.5,190.5C 154.665,187.482 154.498,184.482 154,181.5C 153.934,185.251 153.101,188.751 151.5,192C 151.611,193.722 152.111,193.888 153,192.5C 153.667,195.167 153.667,197.833 153,200.5C 150.086,210.575 147.086,220.241 144,229.5C 143.83,239.342 143.33,249.009 142.5,258.5C 142.218,239.477 142.718,220.477 144,201.5C 144.5,200.333 145.333,199.5 146.5,199C 145.424,197.274 145.257,195.441 146,193.5C 146.249,194.624 146.749,195.624 147.5,196.5C 147.833,196.167 148.167,195.833 148.5,195.5C 148.013,194.554 147.68,193.554 147.5,192.5C 147.852,191.214 148.518,190.381 149.5,190C 147.627,186.733 146.96,183.4 147.5,180C 148.047,179.075 148.713,178.242 149.5,177.5C 150.096,178.716 150.263,180.049 150,181.5C 151,180.833 152,180.167 153,179.5C 153.287,177.109 153.787,174.776 154.5,172.5C 154.167,171.833 153.833,171.167 153.5,170.5C 155.015,168.453 155.849,166.119 156,163.5C 161.294,158.183 164.961,151.85 167,144.5C 168.525,144.888 170.192,144.888 172,144.5C 172.54,142.865 172.04,141.532 170.5,140.5C 171.076,137.876 172.41,137.209 174.5,138.5C 175.281,137.271 175.781,135.938 176,134.5C 176.333,135.167 176.667,135.833 177,136.5C 177.652,134.277 179.152,133.11 181.5,133C 183.113,130.579 184.447,128.079 185.5,125.5C 188.811,124.545 191.977,123.212 195,121.5C 195.148,118.603 195.815,115.603 197,112.5C 197.333,113.833 197.667,115.167 198,116.5C 198.383,115.944 198.883,115.611 199.5,115.5 Z"/></g>
<g><path style="opacity:1" fill="#368de2" d="M 282.5,168.5 C 283.219,170.764 283.552,173.097 283.5,175.5C 283.5,178.833 283.5,182.167 283.5,185.5C 282.318,183.162 280.652,181.162 278.5,179.5C 277.996,182.522 276.329,183.689 273.5,183C 274.711,182.107 274.711,181.274 273.5,180.5C 271.076,181.423 269.076,182.923 267.5,185C 268.167,185.333 268.833,185.667 269.5,186C 267.76,190.321 266.76,194.821 266.5,199.5C 266.167,199.5 265.833,199.5 265.5,199.5C 265.5,199.167 265.5,198.833 265.5,198.5C 265.644,191.912 264.977,185.412 263.5,179C 264.148,177.56 264.481,176.06 264.5,174.5C 265.873,174.657 267.207,174.49 268.5,174C 268,173.5 267.5,173 267,172.5C 265.719,173.647 265.386,173.313 266,171.5C 270.691,165.111 276.191,164.111 282.5,168.5 Z"/></g>
<g><path style="opacity:1" fill="#0146a5" d="M 302.5,188.5 C 303.275,192.913 304.609,197.079 306.5,201C 305.552,201.483 304.552,201.649 303.5,201.5C 303.413,197.14 301.746,193.973 298.5,192C 298.043,192.414 297.709,192.914 297.5,193.5C 300.585,196.586 301.751,200.253 301,204.5C 300.433,201.353 298.766,199.02 296,197.5C 295.03,200.774 293.53,203.774 291.5,206.5C 293.396,207.466 295.396,207.799 297.5,207.5C 298.371,210.062 298.371,212.728 297.5,215.5C 296.167,215.5 294.833,215.5 293.5,215.5C 293.785,217.288 293.452,218.955 292.5,220.5C 291.833,220.167 291.167,219.833 290.5,219.5C 289.833,220.833 289.167,222.167 288.5,223.5C 287.833,222.833 287.167,222.167 286.5,221.5C 285.332,215.676 285.332,209.842 286.5,204C 285.985,194.301 284.985,184.801 283.5,175.5C 283.552,173.097 283.219,170.764 282.5,168.5C 280.977,159.6 278.644,150.934 275.5,142.5C 277.17,142.249 278.67,141.582 280,140.5C 283.496,144.328 286.163,148.662 288,153.5C 289.297,152.216 290.464,152.383 291.5,154C 286.936,157.62 286.936,160.786 291.5,163.5C 292.333,165.5 293.167,167.5 294,169.5C 298.938,174.924 301.771,181.257 302.5,188.5 Z"/></g>
<g><path style="opacity:1" fill="#589fe5" d="M 283.5,185.5 C 284.492,192.648 284.825,199.981 284.5,207.5C 283.837,205.958 283.17,204.291 282.5,202.5C 281.5,203.833 280.5,203.833 279.5,202.5C 278.389,205.202 276.389,205.202 273.5,202.5C 270.381,204.291 268.381,206.958 267.5,210.5C 267.708,222.484 267.708,234.817 267.5,247.5C 270.024,248.812 272.691,249.312 275.5,249C 274.833,248.667 274.167,248.333 273.5,248C 275.303,247.363 276.636,246.197 277.5,244.5C 277.833,245.167 278.167,245.833 278.5,246.5C 279.886,244.258 281.886,242.925 284.5,242.5C 284.5,245.5 284.5,248.5 284.5,251.5C 278.5,251.5 272.5,251.5 266.5,251.5C 266.5,234.167 266.5,216.833 266.5,199.5C 266.76,194.821 267.76,190.321 269.5,186C 268.833,185.667 268.167,185.333 267.5,185C 269.076,182.923 271.076,181.423 273.5,180.5C 274.711,181.274 274.711,182.107 273.5,183C 276.329,183.689 277.996,182.522 278.5,179.5C 280.652,181.162 282.318,183.162 283.5,185.5 Z"/></g>
<g><path style="opacity:1" fill="#f4f8f8" d="M 203.5,194.5 C 203.833,194.5 204.167,194.5 204.5,194.5C 209.024,224.354 226.024,242.021 255.5,247.5C 254.5,247.5 253.5,247.5 252.5,247.5C 230.249,251.577 215.082,264.243 207,285.5C 205.921,288.063 205.421,290.729 205.5,293.5C 204.735,300.553 203.735,300.886 202.5,294.5C 196.632,266.872 179.632,251.039 151.5,247C 153.677,245.798 156.011,245.298 158.5,245.5C 184.458,238.207 199.458,221.207 203.5,194.5 Z"/></g>
<g><path style="opacity:1" fill="#05439a" d="M 302.5,167.5 C 303.812,169.696 304.979,172.03 306,174.5C 306.179,179.652 307.012,184.652 308.5,189.5C 308.232,211.477 308.065,233.477 308,255.5C 307.087,259.288 306.92,262.955 307.5,266.5C 306.103,270.88 305.103,275.38 304.5,280C 304.889,286.032 305.222,291.865 305.5,297.5C 302.188,303.336 297.188,307.003 290.5,308.5C 289.584,308.457 288.917,308.124 288.5,307.5C 292.847,307.058 293.18,306.225 289.5,305C 290.536,303.383 291.703,303.216 293,304.5C 294.496,301.998 296.663,300.331 299.5,299.5C 302.179,292.548 303.513,285.548 303.5,278.5C 302.885,275.961 302.218,273.461 301.5,271C 301.539,268.703 301.872,266.37 302.5,264C 301.552,263.517 300.552,263.351 299.5,263.5C 299.816,260.022 299.316,256.688 298,253.5C 297.066,258.729 294.233,262.396 289.5,264.5C 288.5,266.5 287.5,268.5 286.5,270.5C 286.709,271.086 287.043,271.586 287.5,272C 286.584,272.278 285.918,272.778 285.5,273.5C 285.167,273.5 284.833,273.5 284.5,273.5C 278.545,272.637 272.545,272.303 266.5,272.5C 266.833,287.182 266.499,301.848 265.5,316.5C 262.242,317.417 258.909,317.751 255.5,317.5C 255.189,316.522 254.522,315.855 253.5,315.5C 251.817,316.592 249.984,317.259 248,317.5C 243.385,315.708 238.552,314.541 233.5,314C 230.557,312.541 230.224,310.874 232.5,309C 231.548,305.311 232.215,301.811 234.5,298.5C 235.167,298.833 235.833,299.167 236.5,299.5C 237.747,297.994 237.747,296.494 236.5,295C 238.78,294.767 240.78,293.934 242.5,292.5C 241.5,291.667 240.5,290.833 239.5,290C 240.766,289.691 241.933,289.191 243,288.5C 244.416,284.664 246.583,281.331 249.5,278.5C 250.946,276.382 251.613,274.049 251.5,271.5C 255.541,271.498 256.208,270.165 253.5,267.5C 253.709,266.914 254.043,266.414 254.5,266C 258.931,264.433 262.597,262.766 265.5,261C 266.723,258.948 267.723,256.781 268.5,254.5C 273.895,253.143 279.228,252.143 284.5,251.5C 284.5,248.5 284.5,245.5 284.5,242.5C 284.5,230.833 284.5,219.167 284.5,207.5C 284.825,199.981 284.492,192.648 283.5,185.5C 283.5,182.167 283.5,178.833 283.5,175.5C 284.985,184.801 285.985,194.301 286.5,204C 285.332,209.842 285.332,215.676 286.5,221.5C 287.167,222.167 287.833,222.833 288.5,223.5C 289.167,222.167 289.833,220.833 290.5,219.5C 291.167,219.833 291.833,220.167 292.5,220.5C 293.452,218.955 293.785,217.288 293.5,215.5C 294.833,215.5 296.167,215.5 297.5,215.5C 298.371,212.728 298.371,210.062 297.5,207.5C 295.396,207.799 293.396,207.466 291.5,206.5C 293.53,203.774 295.03,200.774 296,197.5C 298.766,199.02 300.433,201.353 301,204.5C 301.751,200.253 300.585,196.586 297.5,193.5C 297.709,192.914 298.043,192.414 298.5,192C 301.746,193.973 303.413,197.14 303.5,201.5C 304.552,201.649 305.552,201.483 306.5,201C 304.609,197.079 303.275,192.913 302.5,188.5C 303.496,188.414 304.329,188.748 305,189.5C 305.167,188 305.333,186.5 305.5,185C 303.563,179.347 302.563,173.513 302.5,167.5 Z"/></g>
<g><path style="opacity:1" fill="#319be7" d="M 112.5,230.5 C 112.831,257.672 112.498,284.672 111.5,311.5C 108.167,310.167 104.833,308.833 101.5,307.5C 101.5,307.167 101.5,306.833 101.5,306.5C 104.906,306.302 107.906,307.302 110.5,309.5C 111.901,288.811 111.734,268.145 110,247.5C 109.667,250.167 109.333,252.833 109,255.5C 108.511,250.362 107.845,245.029 107,239.5C 105.503,244.496 104.003,249.496 102.5,254.5C 101.749,253.624 101.249,252.624 101,251.5C 100.188,262.737 99.6885,274.071 99.5,285.5C 99.6667,291.167 99.8333,296.833 100,302.5C 101.039,303.244 101.539,304.244 101.5,305.5C 100.85,305.196 100.183,304.863 99.5,304.5C 98.5002,278.509 98.1669,252.509 98.5,226.5C 99.4756,220.334 100.309,214 101,207.5C 101.915,208.328 102.581,209.328 103,210.5C 103.684,209.216 103.517,208.049 102.5,207C 103.595,204.805 104.595,202.638 105.5,200.5C 105.167,199.833 104.833,199.167 104.5,198.5C 105.499,194.504 106.499,190.504 107.5,186.5C 108.415,187.328 109.081,188.328 109.5,189.5C 108.063,191.021 107.396,192.855 107.5,195C 107.556,198.305 107.556,201.638 107.5,205C 108.126,205.75 108.626,206.584 109,207.5C 109.333,207.167 109.667,206.833 110,206.5C 110.408,214.694 111.242,222.694 112.5,230.5 Z"/></g>
<g><path style="opacity:1" fill="#dfecf9" d="M 139.5,247.5 C 137.983,247.511 136.816,248.177 136,249.5C 135.692,248.692 135.192,248.025 134.5,247.5C 134.265,252.559 133.765,257.559 133,262.5C 132.851,255.546 132.018,248.546 130.5,241.5C 129.828,244.897 128.995,248.23 128,251.5C 127.692,250.692 127.192,250.025 126.5,249.5C 125.086,250.624 123.586,251.624 122,252.5C 121.238,255.361 120.738,258.361 120.5,261.5C 119.276,257.772 118.776,254.105 119,250.5C 117.853,251.458 116.853,251.125 116,249.5C 114.2,261.357 113.367,261.357 113.5,249.5C 114.152,240.627 114.986,231.627 116,222.5C 116.333,222.167 116.667,221.833 117,221.5C 117.333,224.167 117.667,226.833 118,229.5C 118.414,229.957 118.914,230.291 119.5,230.5C 123.01,229.06 124.677,226.727 124.5,223.5C 125.389,230.885 127.222,230.885 130,223.5C 131.017,225.376 131.851,227.376 132.5,229.5C 133.557,227.997 134.224,226.33 134.5,224.5C 133.772,222.845 133.605,221.179 134,219.5C 135.562,221.957 136.562,224.624 137,227.5C 137.333,226.167 137.667,224.833 138,223.5C 139.363,231.429 139.863,239.429 139.5,247.5 Z"/></g>
<g><path style="opacity:1" fill="#3a89da" d="M 204.5,194.5 C 207.221,197.902 208.721,201.902 209,206.5C 211.057,208.269 212.89,210.269 214.5,212.5C 214.291,213.086 213.957,213.586 213.5,214C 216.167,217.667 218.833,221.333 221.5,225C 221.167,225.333 220.833,225.667 220.5,226C 222.441,226.743 224.274,226.576 226,225.5C 230.262,230.133 234.429,233.967 238.5,237C 240.525,240.349 243.525,242.183 247.5,242.5C 248.635,244.213 250.302,244.88 252.5,244.5C 253.718,245.161 255.051,245.828 256.5,246.5C 256.376,247.107 256.043,247.44 255.5,247.5C 226.024,242.021 209.024,224.354 204.5,194.5 Z"/></g>
<g><path style="opacity:1" fill="#6faae4" d="M 284.5,207.5 C 284.5,219.167 284.5,230.833 284.5,242.5C 281.886,242.925 279.886,244.258 278.5,246.5C 278.167,245.833 277.833,245.167 277.5,244.5C 276.636,246.197 275.303,247.363 273.5,248C 274.167,248.333 274.833,248.667 275.5,249C 272.691,249.312 270.024,248.812 267.5,247.5C 267.708,234.817 267.708,222.484 267.5,210.5C 268.381,206.958 270.381,204.291 273.5,202.5C 276.389,205.202 278.389,205.202 279.5,202.5C 280.5,203.833 281.5,203.833 282.5,202.5C 283.17,204.291 283.837,205.958 284.5,207.5 Z"/></g>
<g><path style="opacity:1" fill="#2e90e3" d="M 203.5,194.5 C 199.458,221.207 184.458,238.207 158.5,245.5C 158.557,244.391 158.89,243.391 159.5,242.5C 162.079,241.211 164.745,239.877 167.5,238.5C 168.251,237.624 168.751,236.624 169,235.5C 169.333,236.167 169.667,236.833 170,237.5C 170.333,236.167 170.667,234.833 171,233.5C 171.333,233.833 171.667,234.167 172,234.5C 173.491,232.996 175.324,232.163 177.5,232C 181.15,228.419 185.15,224.419 189.5,220C 188.572,219.612 187.905,218.945 187.5,218C 187.763,216.054 188.763,215.388 190.5,216C 189.346,216.914 189.513,217.747 191,218.5C 192.011,217.663 193.178,217.33 194.5,217.5C 194.657,216.127 194.49,214.793 194,213.5C 192.422,213.588 190.922,213.588 189.5,213.5C 191.128,210.778 192.795,210.445 194.5,212.5C 198.663,207.721 200.663,202.055 200.5,195.5C 201.391,194.89 202.391,194.557 203.5,194.5 Z"/></g>
<g><path style="opacity:1" fill="#0551b2" d="M 265.5,199.5 C 265.833,199.5 266.167,199.5 266.5,199.5C 266.5,216.833 266.5,234.167 266.5,251.5C 272.5,251.5 278.5,251.5 284.5,251.5C 279.228,252.143 273.895,253.143 268.5,254.5C 267.723,256.781 266.723,258.948 265.5,261C 262.597,262.766 258.931,264.433 254.5,266C 254.043,266.414 253.709,266.914 253.5,267.5C 256.208,270.165 255.541,271.498 251.5,271.5C 251.613,274.049 250.946,276.382 249.5,278.5C 246.583,281.331 244.416,284.664 243,288.5C 241.933,289.191 240.766,289.691 239.5,290C 240.5,290.833 241.5,291.667 242.5,292.5C 240.78,293.934 238.78,294.767 236.5,295C 237.747,296.494 237.747,297.994 236.5,299.5C 235.833,299.167 235.167,298.833 234.5,298.5C 232.215,301.811 231.548,305.311 232.5,309C 230.224,310.874 230.557,312.541 233.5,314C 238.552,314.541 243.385,315.708 248,317.5C 249.984,317.259 251.817,316.592 253.5,315.5C 254.522,315.855 255.189,316.522 255.5,317.5C 239.646,321.214 223.646,322.214 207.5,320.5C 208.952,319.698 210.618,319.198 212.5,319C 211.391,318.362 210.225,317.862 209,317.5C 206.772,318.981 204.272,319.648 201.5,319.5C 194.781,318.656 188.114,317.49 181.5,316C 182.5,315.667 183.5,315.333 184.5,315C 182.956,314.71 181.623,314.044 180.5,313C 181.756,312.583 182.423,311.75 182.5,310.5C 186.534,313.694 191.534,315.527 197.5,316C 196.446,314.612 196.28,313.112 197,311.5C 198.356,312.38 199.856,312.714 201.5,312.5C 201.974,316.157 203.307,316.324 205.5,313C 204.5,312.667 203.5,312.333 202.5,312C 204.081,311.293 205.581,310.46 207,309.5C 208.793,313.374 209.959,313.041 210.5,308.5C 210.563,306.519 209.896,304.852 208.5,303.5C 209.025,302.808 209.692,302.308 210.5,302C 209.167,301 209.167,300 210.5,299C 209,298.167 207.833,297 207,295.5C 202.489,306.218 200.655,305.884 201.5,294.5C 201.833,294.5 202.167,294.5 202.5,294.5C 203.735,300.886 204.735,300.553 205.5,293.5C 206.472,291.507 207.805,291.174 209.5,292.5C 210.451,297.211 212.618,301.211 216,304.5C 221.668,279.333 236.834,263 261.5,255.5C 261.719,254.325 261.386,253.325 260.5,252.5C 257.965,251.1 255.298,250.1 252.5,249.5C 252.5,248.833 252.5,248.167 252.5,247.5C 253.5,247.5 254.5,247.5 255.5,247.5C 256.043,247.44 256.376,247.107 256.5,246.5C 255.051,245.828 253.718,245.161 252.5,244.5C 254.722,244.822 256.556,244.155 258,242.5C 259.617,243.536 259.784,244.703 258.5,246C 259.646,246.645 260.646,247.478 261.5,248.5C 262.287,247.758 262.953,246.925 263.5,246C 263.87,244.39 263.203,242.89 261.5,241.5C 262.347,240.155 263.513,239.155 265,238.5C 265.448,225.257 265.614,212.257 265.5,199.5 Z"/></g>
<g><path style="opacity:1" fill="#016bdb" d="M 176.5,264.5 C 177.117,264.389 177.617,264.056 178,263.5C 178.398,270.054 180.898,271.054 185.5,266.5C 186.051,268.413 186.218,270.413 186,272.5C 188.124,273.622 189.957,275.122 191.5,277C 192.825,276.852 193.992,277.018 195,277.5C 197.022,279.969 196.855,282.135 194.5,284C 195.605,285.586 196.939,286.752 198.5,287.5C 197.948,289.703 196.615,290.536 194.5,290C 194.957,289.586 195.291,289.086 195.5,288.5C 194.478,287.646 193.645,286.646 193,285.5C 190.61,286.116 188.444,286.116 186.5,285.5C 185.73,283.728 184.397,282.728 182.5,282.5C 180.348,284.127 178.014,285.627 175.5,287C 172.854,287.497 170.187,287.664 167.5,287.5C 165.629,292.042 162.296,294.708 157.5,295.5C 157.38,294.414 156.713,293.747 155.5,293.5C 154.034,294.135 152.7,294.969 151.5,296C 152.167,296.333 152.833,296.667 153.5,297C 149.388,297.539 148.721,299.206 151.5,302C 149.884,303.09 149.217,304.257 149.5,305.5C 148.201,304.91 147.368,303.91 147,302.5C 147.131,299.905 146.964,297.405 146.5,295C 150.516,289.353 154.016,283.52 157,277.5C 160.83,274.489 164.997,272.155 169.5,270.5C 167.408,267.848 164.742,267.014 161.5,268C 161.138,271.108 159.304,273.608 156,275.5C 155.333,276.833 154.667,278.167 154,279.5C 153.667,278.5 153.333,277.5 153,276.5C 152.667,276.833 152.333,277.167 152,277.5C 150.625,283.305 148.292,288.638 145,293.5C 144.843,291.005 144.676,288.672 144.5,286.5C 145.873,283.226 147.706,280.226 150,277.5C 150.147,274.429 150.98,271.596 152.5,269C 152.167,268.667 151.833,268.333 151.5,268C 153.623,267.185 155.623,266.185 157.5,265C 156.833,264.667 156.167,264.333 155.5,264C 156.931,263.535 158.097,262.701 159,261.5C 163.942,262.205 168.775,263.871 173.5,266.5C 174.265,265.388 175.265,264.721 176.5,264.5 Z"/></g>
<g><path style="opacity:1" fill="#023384" d="M 288.5,307.5 C 287.5,307.5 286.5,307.5 285.5,307.5C 285.5,296.167 285.5,284.833 285.5,273.5C 285.918,272.778 286.584,272.278 287.5,272C 287.043,271.586 286.709,271.086 286.5,270.5C 287.5,268.5 288.5,266.5 289.5,264.5C 294.233,262.396 297.066,258.729 298,253.5C 299.316,256.688 299.816,260.022 299.5,263.5C 300.552,263.351 301.552,263.517 302.5,264C 301.872,266.37 301.539,268.703 301.5,271C 302.218,273.461 302.885,275.961 303.5,278.5C 303.513,285.548 302.179,292.548 299.5,299.5C 296.663,300.331 294.496,301.998 293,304.5C 291.703,303.216 290.536,303.383 289.5,305C 293.18,306.225 292.847,307.058 288.5,307.5 Z"/></g>
<g><path style="opacity:1" fill="#284b8e" d="M 252.5,247.5 C 252.5,248.167 252.5,248.833 252.5,249.5C 251.262,249.81 251.262,250.31 252.5,251C 250.282,252.091 248.116,253.257 246,254.5C 244.667,254.5 243.333,254.5 242,254.5C 241.5,255.5 241,256.5 240.5,257.5C 236.74,259.8 233.24,262.466 230,265.5C 229.586,265.043 229.086,264.709 228.5,264.5C 222.894,266.61 219.06,270.61 217,276.5C 215.667,276.5 214.333,276.5 213,276.5C 213.569,279.303 213.069,282.136 211.5,285C 211.833,285.333 212.167,285.667 212.5,286C 210.835,287.826 209.835,289.993 209.5,292.5C 207.805,291.174 206.472,291.507 205.5,293.5C 205.421,290.729 205.921,288.063 207,285.5C 215.082,264.243 230.249,251.577 252.5,247.5 Z"/></g>
<g><path style="opacity:1" fill="#4277be" d="M 284.5,273.5 C 284.333,285.838 284.5,298.171 285,310.5C 285.236,312.119 286.069,313.119 287.5,313.5C 246.798,323.613 205.465,326.28 163.5,321.5C 161.112,320.651 158.779,319.651 156.5,318.5C 157.93,318.579 159.264,318.246 160.5,317.5C 171.217,319.67 182.051,321.004 193,321.5C 197.609,320.941 202.442,320.608 207.5,320.5C 223.646,322.214 239.646,321.214 255.5,317.5C 258.909,317.751 262.242,317.417 265.5,316.5C 266.499,301.848 266.833,287.182 266.5,272.5C 272.545,272.303 278.545,272.637 284.5,273.5 Z"/></g>
<g><path style="opacity:1" fill="#0a367f" d="M 252.5,249.5 C 255.298,250.1 257.965,251.1 260.5,252.5C 261.386,253.325 261.719,254.325 261.5,255.5C 236.834,263 221.668,279.333 216,304.5C 212.618,301.211 210.451,297.211 209.5,292.5C 209.835,289.993 210.835,287.826 212.5,286C 212.167,285.667 211.833,285.333 211.5,285C 213.069,282.136 213.569,279.303 213,276.5C 214.333,276.5 215.667,276.5 217,276.5C 219.06,270.61 222.894,266.61 228.5,264.5C 229.086,264.709 229.586,265.043 230,265.5C 233.24,262.466 236.74,259.8 240.5,257.5C 241,256.5 241.5,255.5 242,254.5C 243.333,254.5 244.667,254.5 246,254.5C 248.116,253.257 250.282,252.091 252.5,251C 251.262,250.31 251.262,249.81 252.5,249.5 Z"/></g>
<g><path style="opacity:1" fill="#cae0f8" d="M 113.5,191.5 C 113.5,210.833 113.5,230.167 113.5,249.5C 113.367,261.357 114.2,261.357 116,249.5C 116.853,251.125 117.853,251.458 119,250.5C 118.776,254.105 119.276,257.772 120.5,261.5C 120.738,258.361 121.238,255.361 122,252.5C 123.586,251.624 125.086,250.624 126.5,249.5C 127.192,250.025 127.692,250.692 128,251.5C 128.995,248.23 129.828,244.897 130.5,241.5C 132.018,248.546 132.851,255.546 133,262.5C 133.765,257.559 134.265,252.559 134.5,247.5C 135.192,248.025 135.692,248.692 136,249.5C 136.816,248.177 137.983,247.511 139.5,247.5C 139.369,248.239 139.536,248.906 140,249.5C 140.191,247.292 140.691,245.292 141.5,243.5C 141.5,268.167 141.5,292.833 141.5,317.5C 138.482,317.665 135.482,317.498 132.5,317C 125.595,315.262 118.595,313.429 111.5,311.5C 112.498,284.672 112.831,257.672 112.5,230.5C 112.171,217.323 112.505,204.323 113.5,191.5 Z"/></g>
<g><path style="opacity:1" fill="#0a71d9" d="M 176.5,264.5 C 175.265,264.721 174.265,265.388 173.5,266.5C 168.775,263.871 163.942,262.205 159,261.5C 158.097,262.701 156.931,263.535 155.5,264C 156.167,264.333 156.833,264.667 157.5,265C 155.623,266.185 153.623,267.185 151.5,268C 151.833,268.333 152.167,268.667 152.5,269C 150.98,271.596 150.147,274.429 150,277.5C 147.706,280.226 145.873,283.226 144.5,286.5C 144.676,288.672 144.843,291.005 145,293.5C 148.292,288.638 150.625,283.305 152,277.5C 152.333,277.167 152.667,276.833 153,276.5C 153.333,277.5 153.667,278.5 154,279.5C 154.667,278.167 155.333,276.833 156,275.5C 159.304,273.608 161.138,271.108 161.5,268C 164.742,267.014 167.408,267.848 169.5,270.5C 164.997,272.155 160.83,274.489 157,277.5C 154.016,283.52 150.516,289.353 146.5,295C 146.964,297.405 147.131,299.905 147,302.5C 147.368,303.91 148.201,304.91 149.5,305.5C 149.217,304.257 149.884,303.09 151.5,302C 148.721,299.206 149.388,297.539 153.5,297C 152.833,296.667 152.167,296.333 151.5,296C 152.7,294.969 154.034,294.135 155.5,293.5C 156.713,293.747 157.38,294.414 157.5,295.5C 156.448,295.351 155.448,295.517 154.5,296C 158.223,297.365 158.223,299.032 154.5,301C 155.583,303.056 157.25,304.389 159.5,305C 158,306.167 156.5,307.333 155,308.5C 154.667,307.5 154.333,306.5 154,305.5C 153.727,307.329 152.893,308.829 151.5,310C 155.032,311.449 158.532,311.949 162,311.5C 162.308,310.692 162.808,310.025 163.5,309.5C 165.583,310.959 167.75,312.292 170,313.5C 170.667,310.833 171.333,310.833 172,313.5C 173.852,311.77 173.686,310.604 171.5,310C 172.438,308.937 173.438,307.77 174.5,306.5C 176.846,308.511 179.513,309.844 182.5,310.5C 182.423,311.75 181.756,312.583 180.5,313C 181.623,314.044 182.956,314.71 184.5,315C 183.5,315.333 182.5,315.667 181.5,316C 188.114,317.49 194.781,318.656 201.5,319.5C 204.272,319.648 206.772,318.981 209,317.5C 210.225,317.862 211.391,318.362 212.5,319C 210.618,319.198 208.952,319.698 207.5,320.5C 202.442,320.608 197.609,320.941 193,321.5C 182.051,321.004 171.217,319.67 160.5,317.5C 159.264,318.246 157.93,318.579 156.5,318.5C 156.167,318.5 155.833,318.5 155.5,318.5C 156.263,317.732 157.263,317.232 158.5,317C 155.851,316.548 153.351,315.714 151,314.5C 148.602,314.935 146.269,314.269 144,312.5C 143.333,295.167 143.333,277.833 144,260.5C 144.333,260.833 144.667,261.167 145,261.5C 145.131,258.629 146.297,256.295 148.5,254.5C 148.291,253.914 147.957,253.414 147.5,253C 149.492,252.426 150.992,251.259 152,249.5C 155.29,251.032 158.624,251.365 162,250.5C 163.509,252.919 165.675,253.919 168.5,253.5C 168.649,254.552 168.483,255.552 168,256.5C 167.282,255.549 166.449,255.383 165.5,256C 169.638,258.315 173.305,261.148 176.5,264.5 Z"/></g>
<g><path style="opacity:1" fill="#2185e3" d="M 101.5,306.5 C 101.5,306.167 101.5,305.833 101.5,305.5C 101.539,304.244 101.039,303.244 100,302.5C 99.8333,296.833 99.6667,291.167 99.5,285.5C 99.6885,274.071 100.188,262.737 101,251.5C 101.249,252.624 101.749,253.624 102.5,254.5C 104.003,249.496 105.503,244.496 107,239.5C 107.845,245.029 108.511,250.362 109,255.5C 109.333,252.833 109.667,250.167 110,247.5C 111.734,268.145 111.901,288.811 110.5,309.5C 107.906,307.302 104.906,306.302 101.5,306.5 Z"/></g>
<g><path style="opacity:1" fill="#015fcc" d="M 198.5,287.5 C 199.736,289.649 200.736,291.982 201.5,294.5C 200.655,305.884 202.489,306.218 207,295.5C 207.833,297 209,298.167 210.5,299C 209.167,300 209.167,301 210.5,302C 209.692,302.308 209.025,302.808 208.5,303.5C 209.896,304.852 210.563,306.519 210.5,308.5C 209.959,313.041 208.793,313.374 207,309.5C 205.581,310.46 204.081,311.293 202.5,312C 203.5,312.333 204.5,312.667 205.5,313C 203.307,316.324 201.974,316.157 201.5,312.5C 199.856,312.714 198.356,312.38 197,311.5C 196.28,313.112 196.446,314.612 197.5,316C 191.534,315.527 186.534,313.694 182.5,310.5C 179.513,309.844 176.846,308.511 174.5,306.5C 173.438,307.77 172.438,308.937 171.5,310C 173.686,310.604 173.852,311.77 172,313.5C 171.333,310.833 170.667,310.833 170,313.5C 167.75,312.292 165.583,310.959 163.5,309.5C 162.808,310.025 162.308,310.692 162,311.5C 158.532,311.949 155.032,311.449 151.5,310C 152.893,308.829 153.727,307.329 154,305.5C 154.333,306.5 154.667,307.5 155,308.5C 156.5,307.333 158,306.167 159.5,305C 157.25,304.389 155.583,303.056 154.5,301C 158.223,299.032 158.223,297.365 154.5,296C 155.448,295.517 156.448,295.351 157.5,295.5C 162.296,294.708 165.629,292.042 167.5,287.5C 170.187,287.664 172.854,287.497 175.5,287C 178.014,285.627 180.348,284.127 182.5,282.5C 184.397,282.728 185.73,283.728 186.5,285.5C 188.444,286.116 190.61,286.116 193,285.5C 193.645,286.646 194.478,287.646 195.5,288.5C 195.291,289.086 194.957,289.586 194.5,290C 196.615,290.536 197.948,289.703 198.5,287.5 Z"/></g>
<g><path style="opacity:1" fill="#355799" d="M 308.5,189.5 C 308.833,189.5 309.167,189.5 309.5,189.5C 310.831,228.335 310.831,267.335 309.5,306.5C 302.341,309.415 295.007,311.748 287.5,313.5C 286.069,313.119 285.236,312.119 285,310.5C 284.5,298.171 284.333,285.838 284.5,273.5C 284.833,273.5 285.167,273.5 285.5,273.5C 285.5,284.833 285.5,296.167 285.5,307.5C 286.5,307.5 287.5,307.5 288.5,307.5C 288.917,308.124 289.584,308.457 290.5,308.5C 297.188,307.003 302.188,303.336 305.5,297.5C 305.222,291.865 304.889,286.032 304.5,280C 305.103,275.38 306.103,270.88 307.5,266.5C 306.92,262.955 307.087,259.288 308,255.5C 308.065,233.477 308.232,211.477 308.5,189.5 Z"/></g>
<g><path style="opacity:1" fill="#0a2463" d="M 309.5,323.5 C 309.666,331.507 309.5,339.507 309,347.5C 308.023,346.226 307.189,346.226 306.5,347.5C 299.439,349.077 292.439,350.743 285.5,352.5C 283.585,352.216 281.919,352.549 280.5,353.5C 276.202,354.2 271.869,354.533 267.5,354.5C 267.217,353.711 266.717,353.044 266,352.5C 263.281,353.444 260.448,353.777 257.5,353.5C 257.255,349.119 255.255,348.286 251.5,351C 253.595,351.556 253.762,352.056 252,352.5C 250.535,351.67 249.035,351.504 247.5,352C 249.623,353.194 251.957,353.86 254.5,354C 251.167,354.667 247.833,354.667 244.5,354C 247.616,351.229 247.116,350.062 243,350.5C 238.685,350.4 238.519,351.4 242.5,353.5C 240.53,354.443 239.03,353.776 238,351.5C 235.391,351.457 232.891,352.457 230.5,354.5C 230.167,354.167 229.833,353.833 229.5,353.5C 230.853,352.476 231.52,351.143 231.5,349.5C 233.924,349.808 236.257,349.474 238.5,348.5C 237.359,347.575 237.359,346.741 238.5,346C 235.68,346.095 232.847,346.595 230,347.5C 228.699,347.361 227.866,346.695 227.5,345.5C 228.942,344.18 229.608,342.514 229.5,340.5C 233.85,339.311 238.183,339.311 242.5,340.5C 245.282,339.484 247.949,338.484 250.5,337.5C 265.301,334.071 280.301,330.905 295.5,328C 299.913,325.764 304.58,324.264 309.5,323.5 Z"/></g>
<g><path style="opacity:1" fill="#0d3680" d="M 279.5,332.5 C 281.167,332.5 282.833,332.5 284.5,332.5C 284.5,338.833 284.5,345.167 284.5,351.5C 279.5,352.167 274.5,352.833 269.5,353.5C 268.518,350.622 267.851,347.622 267.5,344.5C 267.59,342.036 268.257,339.87 269.5,338C 269.167,337.667 268.833,337.333 268.5,337C 272.213,335.337 275.88,333.837 279.5,332.5 Z"/></g>
<g><path style="opacity:1" fill="#1a326f" d="M 98.5,323.5 C 148.072,338.876 198.738,343.543 250.5,337.5C 247.949,338.484 245.282,339.484 242.5,340.5C 238.183,339.311 233.85,339.311 229.5,340.5C 229.608,342.514 228.942,344.18 227.5,345.5C 223.153,345.058 222.82,344.225 226.5,343C 222,342.833 217.5,342.667 213,342.5C 207.793,342.886 202.793,342.886 198,342.5C 197.667,343.167 197.333,343.833 197,344.5C 195.667,341.833 194.333,341.833 193,344.5C 192.5,343.5 192,342.5 191.5,341.5C 182.941,340.82 174.441,340.153 166,339.5C 163.32,339.199 160.486,339.533 157.5,340.5C 155.05,338.85 152.383,337.683 149.5,337C 144.582,336.805 139.749,336.305 135,335.5C 133.978,336.354 133.145,337.354 132.5,338.5C 136.411,340.285 140.078,342.285 143.5,344.5C 142.833,344.5 142.167,344.5 141.5,344.5C 141.5,343.833 141.167,343.5 140.5,343.5C 137.888,342.629 135.221,341.963 132.5,341.5C 129.924,340.512 127.257,339.512 124.5,338.5C 122.351,337.264 120.018,336.264 117.5,335.5C 111.208,332.237 104.875,328.904 98.5,325.5C 98.5,324.833 98.5,324.167 98.5,323.5 Z"/></g>
<g><path style="opacity:1" fill="#f4f9f9" d="M 132.5,341.5 C 135.221,341.963 137.888,342.629 140.5,343.5C 140.333,367.502 140.5,391.502 141,415.5C 144.66,441.971 158.827,459.971 183.5,469.5C 206.111,476.761 226.445,472.761 244.5,457.5C 253.375,449.438 260.041,439.771 264.5,428.5C 265.117,428.389 265.617,428.056 266,427.5C 267.8,416.239 268.967,404.906 269.5,393.5C 271.47,392.557 272.97,393.224 274,395.5C 275.085,394.707 276.252,394.04 277.5,393.5C 278.756,396.003 280.256,397.67 282,398.5C 282.167,401 282.333,403.5 282.5,406C 281.763,411.23 281.597,416.397 282,421.5C 281.432,424.458 280.265,427.125 278.5,429.5C 279.348,431.409 279.682,433.409 279.5,435.5C 278.833,437.5 278.167,439.5 277.5,441.5C 271.21,453.556 262.877,464.056 252.5,473C 246.802,476.512 241.135,480.012 235.5,483.5C 222.796,487.507 209.796,489.34 196.5,489C 182.954,487.387 170.287,483.221 158.5,476.5C 146.635,466.778 137.135,455.111 130,441.5C 129.495,439.482 128.995,437.482 128.5,435.5C 126.924,426.344 125.757,417.344 125,408.5C 124.333,386.5 124.333,364.5 125,342.5C 127.381,341.565 129.881,341.232 132.5,341.5 Z"/></g>
<g><path style="opacity:1" fill="#032268" d="M 227.5,345.5 C 227.866,346.695 228.699,347.361 230,347.5C 232.847,346.595 235.68,346.095 238.5,346C 237.359,346.741 237.359,347.575 238.5,348.5C 236.257,349.474 233.924,349.808 231.5,349.5C 231.52,351.143 230.853,352.476 229.5,353.5C 229.833,353.833 230.167,354.167 230.5,354.5C 232.891,352.457 235.391,351.457 238,351.5C 239.03,353.776 240.53,354.443 242.5,353.5C 238.519,351.4 238.685,350.4 243,350.5C 247.116,350.062 247.616,351.229 244.5,354C 247.833,354.667 251.167,354.667 254.5,354C 251.957,353.86 249.623,353.194 247.5,352C 249.035,351.504 250.535,351.67 252,352.5C 253.762,352.056 253.595,351.556 251.5,351C 255.255,348.286 257.255,349.119 257.5,353.5C 260.448,353.777 263.281,353.444 266,352.5C 266.717,353.044 267.217,353.711 267.5,354.5C 250.22,356.082 232.887,356.748 215.5,356.5C 210.833,356.5 206.167,356.5 201.5,356.5C 191.047,354.314 180.38,352.647 169.5,351.5C 160.73,350.029 152.064,347.696 143.5,344.5C 140.078,342.285 136.411,340.285 132.5,338.5C 133.145,337.354 133.978,336.354 135,335.5C 139.749,336.305 144.582,336.805 149.5,337C 152.383,337.683 155.05,338.85 157.5,340.5C 160.486,339.533 163.32,339.199 166,339.5C 174.441,340.153 182.941,340.82 191.5,341.5C 192,342.5 192.5,343.5 193,344.5C 194.333,341.833 195.667,341.833 197,344.5C 197.333,343.833 197.667,343.167 198,342.5C 202.793,342.886 207.793,342.886 213,342.5C 217.5,342.667 222,342.833 226.5,343C 222.82,344.225 223.153,345.058 227.5,345.5 Z"/></g>
<g><path style="opacity:1" fill="#118fea" d="M 143.5,344.5 C 152.064,347.696 160.73,350.029 169.5,351.5C 167.533,351.739 165.699,351.406 164,350.5C 161.425,352.81 158.591,353.643 155.5,353C 156.711,354.113 156.711,355.28 155.5,356.5C 156.09,357.799 157.09,358.632 158.5,359C 157.167,360 157.167,361 158.5,362C 157.584,362.374 156.75,362.874 156,363.5C 155.206,366.471 154.539,369.471 154,372.5C 153.386,389.245 152.886,405.912 152.5,422.5C 153.183,425.461 154.016,425.795 155,423.5C 155.309,424.766 155.809,425.933 156.5,427C 156.279,428.799 155.946,430.632 155.5,432.5C 157.535,433.597 158.868,435.263 159.5,437.5C 159.153,435.86 159.653,434.193 161,432.5C 162.992,438.476 165.825,443.976 169.5,449C 170.793,449.49 172.127,449.657 173.5,449.5C 175.519,454.69 179.185,458.524 184.5,461C 184.167,461.333 183.833,461.667 183.5,462C 186.783,462.459 189.449,463.959 191.5,466.5C 194.32,467.694 197.153,467.694 200,466.5C 200.945,466.905 201.612,467.572 202,468.5C 207.19,468.891 212.357,468.225 217.5,466.5C 214.81,467.994 211.977,469.327 209,470.5C 205.983,469.293 202.983,469.293 200,470.5C 198.278,470.389 198.112,469.889 199.5,469C 195.419,468.961 191.585,468.128 188,466.5C 185.722,467.62 184.222,466.787 183.5,464C 181.731,462.981 180.064,462.814 178.5,463.5C 176.461,462.723 175.795,461.557 176.5,460C 175.167,459.667 173.833,459.333 172.5,459C 170.835,456.927 169.335,454.76 168,452.5C 166.413,453.727 165.079,453.394 164,451.5C 163.053,447.204 160.553,444.537 156.5,443.5C 153.488,435.906 150.488,429.072 147.5,423C 148.022,422.439 148.355,421.772 148.5,421C 147.884,414.277 146.884,407.611 145.5,401C 146.126,386.557 147.126,372.057 148.5,357.5C 148.167,355.5 147.833,353.5 147.5,351.5C 145.833,350.667 144.167,349.833 142.5,349C 144.548,347.774 144.881,346.274 143.5,344.5 Z"/></g>
<g><path style="opacity:1" fill="#0072e1" d="M 201.5,356.5 C 206.167,356.5 210.833,356.5 215.5,356.5C 215.082,357.222 214.416,357.722 213.5,358C 215.588,359.03 217.755,359.863 220,360.5C 221.702,361.369 222.869,362.702 223.5,364.5C 222.606,366.938 222.606,369.438 223.5,372C 222.01,375.719 221.01,379.553 220.5,383.5C 219.5,383.5 218.5,383.5 217.5,383.5C 216.404,397.91 215.237,412.243 214,426.5C 214.333,428.167 214.667,429.833 215,431.5C 215.333,430.5 215.667,429.5 216,428.5C 218.108,430.382 219.441,432.715 220,435.5C 222.161,436.995 223.995,438.828 225.5,441C 224.008,442.885 222.008,443.885 219.5,444C 220.551,445.385 221.884,446.385 223.5,447C 221.008,448.249 221.175,449.416 224,450.5C 225.493,448.652 227.326,447.819 229.5,448C 230.171,448.986 230.171,450.153 229.5,451.5C 228.529,453.483 227.529,455.483 226.5,457.5C 225.209,458.542 225.209,459.708 226.5,461C 225.584,461.374 224.75,461.874 224,462.5C 218.911,462.811 213.744,462.811 208.5,462.5C 203.034,461.556 198.034,459.556 193.5,456.5C 193.278,453.287 191.612,451.454 188.5,451C 187.939,449.324 186.939,447.991 185.5,447C 186.572,445.716 187.905,445.383 189.5,446C 192.167,444.333 192.167,442.667 189.5,441C 184.61,440.762 184.61,440.095 189.5,439C 185.19,430.135 184.523,420.968 187.5,411.5C 187.449,409.9 187.116,408.4 186.5,407C 189.167,404.667 189.167,402.333 186.5,400C 187.448,399.517 188.448,399.351 189.5,399.5C 191.081,394.377 191.748,389.044 191.5,383.5C 192.833,383.5 194.167,383.5 195.5,383.5C 195.445,376.509 197.112,370.009 200.5,364C 197.781,361.765 194.781,359.931 191.5,358.5C 194.818,357.139 198.151,356.473 201.5,356.5 Z"/></g>
<g><path style="opacity:1" fill="#0064d4" d="M 267.5,354.5 C 267.5,354.833 267.5,355.167 267.5,355.5C 265.557,357.971 264.557,360.971 264.5,364.5C 263.072,367.413 262.072,370.579 261.5,374C 262.572,378.124 262.738,382.29 262,386.5C 261.333,387.833 260.667,387.833 260,386.5C 257.602,396.128 256.268,406.128 256,416.5C 255.667,416.167 255.333,415.833 255,415.5C 253.346,420.141 251.179,424.475 248.5,428.5C 245.243,429.798 245.243,431.631 248.5,434C 247.833,434.333 247.167,434.667 246.5,435C 247.337,436.011 247.67,437.178 247.5,438.5C 251.056,438.275 251.39,439.108 248.5,441C 248.645,441.772 248.978,442.439 249.5,443C 248.584,443.374 247.75,443.874 247,444.5C 246.581,443.328 245.915,442.328 245,441.5C 241.509,445.625 238.009,449.125 234.5,452C 232.803,452.384 231.137,452.218 229.5,451.5C 230.171,450.153 230.171,448.986 229.5,448C 227.326,447.819 225.493,448.652 224,450.5C 221.175,449.416 221.008,448.249 223.5,447C 221.884,446.385 220.551,445.385 219.5,444C 222.008,443.885 224.008,442.885 225.5,441C 223.995,438.828 222.161,436.995 220,435.5C 219.441,432.715 218.108,430.382 216,428.5C 215.667,429.5 215.333,430.5 215,431.5C 214.667,429.833 214.333,428.167 214,426.5C 215.237,412.243 216.404,397.91 217.5,383.5C 218.5,383.5 219.5,383.5 220.5,383.5C 221.01,379.553 222.01,375.719 223.5,372C 222.606,369.438 222.606,366.938 223.5,364.5C 222.869,362.702 221.702,361.369 220,360.5C 217.755,359.863 215.588,359.03 213.5,358C 214.416,357.722 215.082,357.222 215.5,356.5C 232.887,356.748 250.22,356.082 267.5,354.5 Z"/></g>
<g><path style="opacity:1" fill="#d9f7f9" d="M 124.5,338.5 C 127.257,339.512 129.924,340.512 132.5,341.5C 129.881,341.232 127.381,341.565 125,342.5C 124.333,364.5 124.333,386.5 125,408.5C 125.757,417.344 126.924,426.344 128.5,435.5C 127.442,434.4 126.608,433.066 126,431.5C 123.017,412.801 121.85,393.968 122.5,375C 122.501,362.481 123.168,350.314 124.5,338.5 Z"/></g>
<g><path style="opacity:1" fill="#007de6" d="M 191.5,358.5 C 194.781,359.931 197.781,361.765 200.5,364C 197.112,370.009 195.445,376.509 195.5,383.5C 194.167,383.5 192.833,383.5 191.5,383.5C 191.748,389.044 191.081,394.377 189.5,399.5C 188.448,399.351 187.448,399.517 186.5,400C 189.167,402.333 189.167,404.667 186.5,407C 187.116,408.4 187.449,409.9 187.5,411.5C 184.523,420.968 185.19,430.135 189.5,439C 184.61,440.095 184.61,440.762 189.5,441C 192.167,442.667 192.167,444.333 189.5,446C 187.905,445.383 186.572,445.716 185.5,447C 186.939,447.991 187.939,449.324 188.5,451C 191.612,451.454 193.278,453.287 193.5,456.5C 198.034,459.556 203.034,461.556 208.5,462.5C 208.586,463.496 208.252,464.329 207.5,465C 205.5,465.667 203.5,465.667 201.5,465C 196.088,463.131 190.755,460.964 185.5,458.5C 181.001,453.127 176.668,448.294 172.5,444C 174.64,442.759 174.973,441.093 173.5,439C 174.25,435.837 174.916,432.67 175.5,429.5C 174.178,429.33 173.011,429.663 172,430.5C 170.099,429.017 170.433,428.017 173,427.5C 173.772,427.645 174.439,427.978 175,428.5C 175.49,427.207 175.657,425.873 175.5,424.5C 174.448,424.649 173.448,424.483 172.5,424C 172.194,414.892 172.694,405.726 174,396.5C 178.476,387.395 181.143,377.729 182,367.5C 183.087,365.248 184.921,363.915 187.5,363.5C 185.217,362.457 183.217,361.791 181.5,361.5C 184.759,360.02 188.092,359.02 191.5,358.5 Z"/></g>
<g><path style="opacity:1" fill="#7ca8c3" d="M 83.5,185.5 C 82.1756,265.171 82.1756,344.838 83.5,424.5C 82.6981,423.048 82.1981,421.382 82,419.5C 81.3333,344.167 81.3333,268.833 82,193.5C 82.1829,190.635 82.6829,187.969 83.5,185.5 Z"/></g>
<g><path style="opacity:1" fill="#37b1ee" d="M 117.5,335.5 C 120.018,336.264 122.351,337.264 124.5,338.5C 123.168,350.314 122.501,362.481 122.5,375C 121.85,393.968 123.017,412.801 126,431.5C 126.608,433.066 127.442,434.4 128.5,435.5C 128.995,437.482 129.495,439.482 130,441.5C 137.135,455.111 146.635,466.778 158.5,476.5C 157.05,477.658 156.05,477.158 155.5,475C 151.41,473.234 147.577,471.067 144,468.5C 142.719,465.553 140.719,463.219 138,461.5C 137.12,455.675 133.953,452.008 128.5,450.5C 126.691,444.874 123.691,440.041 119.5,436C 120.308,435.692 120.975,435.192 121.5,434.5C 120.16,433.312 119.493,431.812 119.5,430C 120.789,425.482 121.122,420.982 120.5,416.5C 119.667,417.5 118.833,418.5 118,419.5C 115.968,415.004 114.468,410.337 113.5,405.5C 114.646,401.64 115.312,397.64 115.5,393.5C 114.741,381.78 114.074,370.28 113.5,359C 113.977,356.101 114.977,353.434 116.5,351C 115.833,347.333 115.167,343.667 114.5,340C 114.915,337.974 115.915,336.474 117.5,335.5 Z"/></g>
<g><path style="opacity:1" fill="#0884e8" d="M 169.5,351.5 C 180.38,352.647 191.047,354.314 201.5,356.5C 198.151,356.473 194.818,357.139 191.5,358.5C 188.092,359.02 184.759,360.02 181.5,361.5C 183.217,361.791 185.217,362.457 187.5,363.5C 184.921,363.915 183.087,365.248 182,367.5C 181.143,377.729 178.476,387.395 174,396.5C 172.694,405.726 172.194,414.892 172.5,424C 173.448,424.483 174.448,424.649 175.5,424.5C 175.657,425.873 175.49,427.207 175,428.5C 174.439,427.978 173.772,427.645 173,427.5C 170.433,428.017 170.099,429.017 172,430.5C 173.011,429.663 174.178,429.33 175.5,429.5C 174.916,432.67 174.25,435.837 173.5,439C 174.973,441.093 174.64,442.759 172.5,444C 176.668,448.294 181.001,453.127 185.5,458.5C 190.755,460.964 196.088,463.131 201.5,465C 203.5,465.667 205.5,465.667 207.5,465C 208.252,464.329 208.586,463.496 208.5,462.5C 213.744,462.811 218.911,462.811 224,462.5C 224.75,461.874 225.584,461.374 226.5,461C 225.209,459.708 225.209,458.542 226.5,457.5C 228.722,457.178 230.556,457.845 232,459.5C 232.317,457.699 232.984,457.366 234,458.5C 238.255,454.313 243.089,450.98 248.5,448.5C 249.578,445.592 251.245,443.092 253.5,441C 253.167,440.667 252.833,440.333 252.5,440C 255.265,437.127 257.598,434.627 259.5,432.5C 259.628,434.655 259.128,436.655 258,438.5C 254.865,442.77 252.031,447.103 249.5,451.5C 248.5,451.5 247.5,451.5 246.5,451.5C 246.296,453.685 245.63,455.685 244.5,457.5C 240.026,457.434 236.36,459.101 233.5,462.5C 228.709,464.647 223.875,466.647 219,468.5C 218.722,467.584 218.222,466.918 217.5,466.5C 212.357,468.225 207.19,468.891 202,468.5C 201.612,467.572 200.945,466.905 200,466.5C 197.153,467.694 194.32,467.694 191.5,466.5C 189.449,463.959 186.783,462.459 183.5,462C 183.833,461.667 184.167,461.333 184.5,461C 179.185,458.524 175.519,454.69 173.5,449.5C 172.127,449.657 170.793,449.49 169.5,449C 165.825,443.976 162.992,438.476 161,432.5C 159.653,434.193 159.153,435.86 159.5,437.5C 158.868,435.263 157.535,433.597 155.5,432.5C 155.946,430.632 156.279,428.799 156.5,427C 155.809,425.933 155.309,424.766 155,423.5C 154.016,425.795 153.183,425.461 152.5,422.5C 152.886,405.912 153.386,389.245 154,372.5C 154.539,369.471 155.206,366.471 156,363.5C 156.75,362.874 157.584,362.374 158.5,362C 157.167,361 157.167,360 158.5,359C 157.09,358.632 156.09,357.799 155.5,356.5C 156.711,355.28 156.711,354.113 155.5,353C 158.591,353.643 161.425,352.81 164,350.5C 165.699,351.406 167.533,351.739 169.5,351.5 Z"/></g>
<g><path style="opacity:1" fill="#e0eff9" d="M 280.5,353.5 C 281.833,353.5 283.167,353.5 284.5,353.5C 284.5,373.833 284.5,394.167 284.5,414.5C 283.74,418.081 283.24,421.748 283,425.5C 281.767,428.874 280.6,432.207 279.5,435.5C 279.682,433.409 279.348,431.409 278.5,429.5C 280.265,427.125 281.432,424.458 282,421.5C 281.597,416.397 281.763,411.23 282.5,406C 282.333,403.5 282.167,401 282,398.5C 280.256,397.67 278.756,396.003 277.5,393.5C 276.252,394.04 275.085,394.707 274,395.5C 272.97,393.224 271.47,392.557 269.5,393.5C 268.967,404.906 267.8,416.239 266,427.5C 265.617,428.056 265.117,428.389 264.5,428.5C 265.295,422.851 266.129,417.184 267,411.5C 267.5,392.836 267.667,374.17 267.5,355.5C 267.5,355.167 267.5,354.833 267.5,354.5C 271.869,354.533 276.202,354.2 280.5,353.5 Z"/></g>
<g><path style="opacity:1" fill="#023e9a" d="M 306.5,347.5 C 306.389,348.117 306.056,348.617 305.5,349C 308.951,351.944 309.451,355.444 307,359.5C 306.097,360.701 304.931,361.535 303.5,362C 304.066,374.222 304.066,386.555 303.5,399C 301.254,404.922 300.088,411.089 300,417.5C 297.56,416.726 296.227,415.06 296,412.5C 294.789,396.921 292.789,381.254 290,365.5C 288.01,362.028 286.51,358.361 285.5,354.5C 285.5,353.833 285.5,353.167 285.5,352.5C 292.439,350.743 299.439,349.077 306.5,347.5 Z"/></g>
<g><path style="opacity:1" fill="#2d9eec" d="M 141.5,344.5 C 142.167,344.5 142.833,344.5 143.5,344.5C 144.881,346.274 144.548,347.774 142.5,349C 144.167,349.833 145.833,350.667 147.5,351.5C 147.833,353.5 148.167,355.5 148.5,357.5C 147.126,372.057 146.126,386.557 145.5,401C 146.884,407.611 147.884,414.277 148.5,421C 148.355,421.772 148.022,422.439 147.5,423C 150.488,429.072 153.488,435.906 156.5,443.5C 160.553,444.537 163.053,447.204 164,451.5C 165.079,453.394 166.413,453.727 168,452.5C 169.335,454.76 170.835,456.927 172.5,459C 173.833,459.333 175.167,459.667 176.5,460C 175.795,461.557 176.461,462.723 178.5,463.5C 180.064,462.814 181.731,462.981 183.5,464C 184.222,466.787 185.722,467.62 188,466.5C 191.585,468.128 195.419,468.961 199.5,469C 198.112,469.889 198.278,470.389 200,470.5C 202.983,469.293 205.983,469.293 209,470.5C 211.977,469.327 214.81,467.994 217.5,466.5C 218.222,466.918 218.722,467.584 219,468.5C 223.875,466.647 228.709,464.647 233.5,462.5C 236.36,459.101 240.026,457.434 244.5,457.5C 226.445,472.761 206.111,476.761 183.5,469.5C 180.346,465.816 176.346,463.316 171.5,462C 167.561,457.978 163.394,454.144 159,450.5C 157.887,449.24 157.72,448.073 158.5,447C 154.657,442.817 151.157,438.317 148,433.5C 146.916,426.673 145.25,420.006 143,413.5C 142.693,390.492 142.193,367.492 141.5,344.5 Z"/></g>
<g><path style="opacity:1" fill="#65c3e9" d="M 98.5,323.5 C 98.5,324.167 98.5,324.833 98.5,325.5C 98.5,326.167 98.5,326.833 98.5,327.5C 98.9361,329.746 99.6028,331.913 100.5,334C 99.3387,361.095 99.1721,388.261 100,415.5C 101.232,420.721 101.899,426.054 102,431.5C 104.897,436.375 106.23,441.708 106,447.5C 108.62,451.54 111.453,454.707 114.5,457C 113.85,458.609 114.35,460.109 116,461.5C 116.49,462.793 116.657,464.127 116.5,465.5C 117.5,465.5 118.5,465.5 119.5,465.5C 119.491,467.308 119.991,468.975 121,470.5C 124.448,473.954 127.115,477.954 129,482.5C 133.337,486.401 137.504,490.401 141.5,494.5C 129.092,486.256 119.258,475.59 112,462.5C 104.727,449.098 100.061,434.765 98,419.5C 97.1693,387.331 97.3359,355.331 98.5,323.5 Z"/></g>
<g><path style="opacity:1" fill="#3e6a98" d="M 280.5,353.5 C 281.919,352.549 283.585,352.216 285.5,352.5C 285.5,353.167 285.5,353.833 285.5,354.5C 285.5,373.5 285.5,392.5 285.5,411.5C 285.737,412.791 285.404,413.791 284.5,414.5C 284.5,394.167 284.5,373.833 284.5,353.5C 283.167,353.5 281.833,353.5 280.5,353.5 Z"/></g>
<g><path style="opacity:1" fill="#3db7f0" d="M 98.5,327.5 C 101.075,329.845 102.075,332.845 101.5,336.5C 102.5,336.5 103.5,336.5 104.5,336.5C 104.407,362.763 104.074,388.93 103.5,415C 104.191,416.067 104.691,417.234 105,418.5C 105.254,427.229 106.087,435.896 107.5,444.5C 110.528,446.53 112.861,449.197 114.5,452.5C 115.034,454.614 116.034,456.448 117.5,458C 117.167,458.333 116.833,458.667 116.5,459C 118.676,459.163 120.509,459.996 122,461.5C 123.76,464.689 125.26,468.023 126.5,471.5C 128.818,472.949 130.818,474.782 132.5,477C 132.167,477.333 131.833,477.667 131.5,478C 133.42,479.122 135.42,479.956 137.5,480.5C 137.343,481.873 137.51,483.207 138,484.5C 142.935,487.577 147.768,490.743 152.5,494C 153.893,495.171 154.727,496.671 155,498.5C 156.049,497.483 157.216,497.316 158.5,498C 160.67,500.511 163.17,502.677 166,504.5C 173.561,507.854 181.394,510.521 189.5,512.5C 192.818,511.643 196.151,511.81 199.5,513C 206.492,513.5 213.492,513.666 220.5,513.5C 191.505,518.335 165.171,512.001 141.5,494.5C 137.504,490.401 133.337,486.401 129,482.5C 127.115,477.954 124.448,473.954 121,470.5C 119.991,468.975 119.491,467.308 119.5,465.5C 118.5,465.5 117.5,465.5 116.5,465.5C 116.657,464.127 116.49,462.793 116,461.5C 114.35,460.109 113.85,458.609 114.5,457C 111.453,454.707 108.62,451.54 106,447.5C 106.23,441.708 104.897,436.375 102,431.5C 101.899,426.054 101.232,420.721 100,415.5C 99.1721,388.261 99.3387,361.095 100.5,334C 99.6028,331.913 98.9361,329.746 98.5,327.5 Z"/></g>
<g><path style="opacity:1" fill="#4fafe4" d="M 140.5,343.5 C 141.167,343.5 141.5,343.833 141.5,344.5C 142.193,367.492 142.693,390.492 143,413.5C 145.25,420.006 146.916,426.673 148,433.5C 151.157,438.317 154.657,442.817 158.5,447C 157.72,448.073 157.887,449.24 159,450.5C 163.394,454.144 167.561,457.978 171.5,462C 176.346,463.316 180.346,465.816 183.5,469.5C 158.827,459.971 144.66,441.971 141,415.5C 140.5,391.502 140.333,367.502 140.5,343.5 Z"/></g>
<g><path style="opacity:1" fill="#4f8bc8" d="M 267.5,355.5 C 267.667,374.17 267.5,392.836 267,411.5C 266.129,417.184 265.295,422.851 264.5,428.5C 260.041,439.771 253.375,449.438 244.5,457.5C 245.63,455.685 246.296,453.685 246.5,451.5C 247.5,451.5 248.5,451.5 249.5,451.5C 252.031,447.103 254.865,442.77 258,438.5C 259.128,436.655 259.628,434.655 259.5,432.5C 260.79,431.942 261.623,430.942 262,429.5C 262.511,427.122 263.178,424.788 264,422.5C 264.555,413.003 265.055,403.503 265.5,394C 265.291,384.185 264.958,374.352 264.5,364.5C 264.557,360.971 265.557,357.971 267.5,355.5 Z"/></g>
<g><path style="opacity:1" fill="#1a57b1" d="M 309.5,323.5 C 310.8,355.35 310.8,387.35 309.5,419.5C 306.806,427.008 303.473,434.175 299.5,441C 300.167,441.667 300.833,442.333 301.5,443C 299.855,444.8 298.522,446.8 297.5,449C 296.551,449.617 295.718,449.451 295,448.5C 294.5,449.667 293.667,450.5 292.5,451C 293.089,452.873 292.422,454.54 290.5,456C 290.833,456.333 291.167,456.667 291.5,457C 288.836,459.669 287.002,462.836 286,466.5C 285.667,465.167 285.333,463.833 285,462.5C 282.064,463.37 278.897,463.37 275.5,462.5C 277.678,459.823 280.011,457.323 282.5,455C 282.167,454.667 281.833,454.333 281.5,454C 282.128,451.182 283.128,448.515 284.5,446C 283.704,444.908 283.037,443.741 282.5,442.5C 283.749,438.835 285.415,435.335 287.5,432C 287.043,431.586 286.709,431.086 286.5,430.5C 288.791,420.878 288.958,411.211 287,401.5C 286.821,405.025 286.321,408.359 285.5,411.5C 285.5,392.5 285.5,373.5 285.5,354.5C 286.51,358.361 288.01,362.028 290,365.5C 292.789,381.254 294.789,396.921 296,412.5C 296.227,415.06 297.56,416.726 300,417.5C 300.088,411.089 301.254,404.922 303.5,399C 304.066,386.555 304.066,374.222 303.5,362C 304.931,361.535 306.097,360.701 307,359.5C 309.451,355.444 308.951,351.944 305.5,349C 306.056,348.617 306.389,348.117 306.5,347.5C 307.189,346.226 308.023,346.226 309,347.5C 309.5,339.507 309.666,331.507 309.5,323.5 Z"/></g>
<g><path style="opacity:1" fill="#0f72d8" d="M 264.5,364.5 C 264.958,374.352 265.291,384.185 265.5,394C 265.055,403.503 264.555,413.003 264,422.5C 263.178,424.788 262.511,427.122 262,429.5C 261.623,430.942 260.79,431.942 259.5,432.5C 257.598,434.627 255.265,437.127 252.5,440C 252.833,440.333 253.167,440.667 253.5,441C 251.245,443.092 249.578,445.592 248.5,448.5C 243.089,450.98 238.255,454.313 234,458.5C 232.984,457.366 232.317,457.699 232,459.5C 230.556,457.845 228.722,457.178 226.5,457.5C 227.529,455.483 228.529,453.483 229.5,451.5C 231.137,452.218 232.803,452.384 234.5,452C 238.009,449.125 241.509,445.625 245,441.5C 245.915,442.328 246.581,443.328 247,444.5C 247.75,443.874 248.584,443.374 249.5,443C 248.978,442.439 248.645,441.772 248.5,441C 251.39,439.108 251.056,438.275 247.5,438.5C 247.67,437.178 247.337,436.011 246.5,435C 247.167,434.667 247.833,434.333 248.5,434C 245.243,431.631 245.243,429.798 248.5,428.5C 251.179,424.475 253.346,420.141 255,415.5C 255.333,415.833 255.667,416.167 256,416.5C 256.268,406.128 257.602,396.128 260,386.5C 260.667,387.833 261.333,387.833 262,386.5C 262.738,382.29 262.572,378.124 261.5,374C 262.072,370.579 263.072,367.413 264.5,364.5 Z"/></g>
<g><path style="opacity:1" fill="#1970cc" d="M 309.5,419.5 C 308.052,430.812 305.218,441.812 301,452.5C 300.623,453.942 299.79,454.942 298.5,455.5C 297.109,457.571 295.276,459.238 293,460.5C 292.667,462.167 292.333,463.833 292,465.5C 288.694,469.641 285.194,473.641 281.5,477.5C 276.742,478.188 273.076,480.522 270.5,484.5C 266.828,482.95 266.161,483.45 268.5,486C 266.671,486.273 265.171,487.107 264,488.5C 263.667,488.167 263.333,487.833 263,487.5C 257.733,491.639 251.899,492.472 245.5,490C 246.328,489.085 247.328,488.419 248.5,488C 247.833,487.667 247.167,487.333 246.5,487C 248.223,486.477 249.556,485.477 250.5,484C 249.427,483.793 248.427,482.96 247.5,481.5C 247.5,480.5 247.5,479.5 247.5,478.5C 251.466,477.385 254.466,474.885 256.5,471C 258.351,470.163 260.184,469.329 262,468.5C 262.419,469.672 263.085,470.672 264,471.5C 265.646,469.945 265.979,468.279 265,466.5C 266.205,465.929 267.372,465.262 268.5,464.5C 267.975,463.808 267.308,463.308 266.5,463C 267.227,461.601 267.727,460.101 268,458.5C 271.905,454.538 275.405,450.372 278.5,446C 277.62,444.644 277.286,443.144 277.5,441.5C 278.167,439.5 278.833,437.5 279.5,435.5C 280.6,432.207 281.767,428.874 283,425.5C 283.24,421.748 283.74,418.081 284.5,414.5C 285.404,413.791 285.737,412.791 285.5,411.5C 286.321,408.359 286.821,405.025 287,401.5C 288.958,411.211 288.791,420.878 286.5,430.5C 286.709,431.086 287.043,431.586 287.5,432C 285.415,435.335 283.749,438.835 282.5,442.5C 283.037,443.741 283.704,444.908 284.5,446C 283.128,448.515 282.128,451.182 281.5,454C 281.833,454.333 282.167,454.667 282.5,455C 280.011,457.323 277.678,459.823 275.5,462.5C 278.897,463.37 282.064,463.37 285,462.5C 285.333,463.833 285.667,465.167 286,466.5C 287.002,462.836 288.836,459.669 291.5,457C 291.167,456.667 290.833,456.333 290.5,456C 292.422,454.54 293.089,452.873 292.5,451C 293.667,450.5 294.5,449.667 295,448.5C 295.718,449.451 296.551,449.617 297.5,449C 298.522,446.8 299.855,444.8 301.5,443C 300.833,442.333 300.167,441.667 299.5,441C 303.473,434.175 306.806,427.008 309.5,419.5 Z"/></g>
<g><path style="opacity:1" fill="#25a7f0" d="M 98.5,325.5 C 104.875,328.904 111.208,332.237 117.5,335.5C 115.915,336.474 114.915,337.974 114.5,340C 115.167,343.667 115.833,347.333 116.5,351C 114.977,353.434 113.977,356.101 113.5,359C 114.074,370.28 114.741,381.78 115.5,393.5C 115.312,397.64 114.646,401.64 113.5,405.5C 114.468,410.337 115.968,415.004 118,419.5C 118.833,418.5 119.667,417.5 120.5,416.5C 121.122,420.982 120.789,425.482 119.5,430C 119.493,431.812 120.16,433.312 121.5,434.5C 120.975,435.192 120.308,435.692 119.5,436C 123.691,440.041 126.691,444.874 128.5,450.5C 133.953,452.008 137.12,455.675 138,461.5C 140.719,463.219 142.719,465.553 144,468.5C 147.577,471.067 151.41,473.234 155.5,475C 156.05,477.158 157.05,477.658 158.5,476.5C 170.287,483.221 182.954,487.387 196.5,489C 209.796,489.34 222.796,487.507 235.5,483.5C 227.223,489.537 217.889,492.204 207.5,491.5C 202.096,491.914 196.763,491.914 191.5,491.5C 190.304,491.846 190.304,492.346 191.5,493C 190,493.167 188.5,493.333 187,493.5C 180.715,492.085 174.881,490.419 169.5,488.5C 167.399,488.632 165.899,489.632 165,491.5C 161.669,488.271 162.502,486.604 167.5,486.5C 167.5,485.5 167.5,484.5 167.5,483.5C 165.064,483.317 162.897,483.984 161,485.5C 159.318,484.135 159.151,482.635 160.5,481C 157.268,477.638 156.602,477.638 158.5,481C 158.167,481.167 157.833,481.333 157.5,481.5C 155.929,480.691 154.262,480.357 152.5,480.5C 152.227,478.549 152.893,477.049 154.5,476C 152.406,475.555 150.906,476.388 150,478.5C 149.586,478.043 149.086,477.709 148.5,477.5C 148.219,479.497 147.719,481.83 147,484.5C 145.703,483.216 144.536,483.383 143.5,485C 147.167,487.333 150.833,489.667 154.5,492C 156.394,493.079 156.727,494.413 155.5,496C 156.825,495.852 157.992,496.018 159,496.5C 159.345,492.104 161.178,491.77 164.5,495.5C 165.386,496.325 165.719,497.325 165.5,498.5C 168.141,497.737 170.808,497.57 173.5,498C 173.833,498.333 174.167,498.667 174.5,499C 173.167,500.333 171.833,501.667 170.5,503C 176.143,503.936 181.476,505.77 186.5,508.5C 187.478,508.023 188.311,507.357 189,506.5C 191.543,508.354 194.376,509.521 197.5,510C 196.304,510.654 196.304,511.154 197.5,511.5C 200.063,511.109 202.563,510.776 205,510.5C 207.094,511.398 209.26,512.065 211.5,512.5C 219.51,511.499 227.51,510.499 235.5,509.5C 230.741,511.325 225.741,512.659 220.5,513.5C 213.492,513.666 206.492,513.5 199.5,513C 196.151,511.81 192.818,511.643 189.5,512.5C 181.394,510.521 173.561,507.854 166,504.5C 163.17,502.677 160.67,500.511 158.5,498C 157.216,497.316 156.049,497.483 155,498.5C 154.727,496.671 153.893,495.171 152.5,494C 147.768,490.743 142.935,487.577 138,484.5C 137.51,483.207 137.343,481.873 137.5,480.5C 135.42,479.956 133.42,479.122 131.5,478C 131.833,477.667 132.167,477.333 132.5,477C 130.818,474.782 128.818,472.949 126.5,471.5C 125.26,468.023 123.76,464.689 122,461.5C 120.509,459.996 118.676,459.163 116.5,459C 116.833,458.667 117.167,458.333 117.5,458C 116.034,456.448 115.034,454.614 114.5,452.5C 112.861,449.197 110.528,446.53 107.5,444.5C 106.087,435.896 105.254,427.229 105,418.5C 104.691,417.234 104.191,416.067 103.5,415C 104.074,388.93 104.407,362.763 104.5,336.5C 103.5,336.5 102.5,336.5 101.5,336.5C 102.075,332.845 101.075,329.845 98.5,327.5C 98.5,326.833 98.5,326.167 98.5,325.5 Z"/></g>
<g><path style="opacity:1" fill="#229cee" d="M 207.5,491.5 C 205.708,492.309 203.708,492.809 201.5,493C 204.372,493.315 207.205,493.815 210,494.5C 211.923,493.198 213.757,493.365 215.5,495C 213.112,495.303 210.945,496.137 209,497.5C 208.085,496.672 207.419,495.672 207,494.5C 203.715,495.024 200.215,495.024 196.5,494.5C 195.304,494.846 195.304,495.346 196.5,496C 191.877,496.958 187.21,497.625 182.5,498C 187.267,500.321 191.267,502.987 194.5,506C 198.009,506.531 201.342,507.531 204.5,509C 207.833,509.667 211.167,509.667 214.5,509C 212.423,508.808 210.423,508.308 208.5,507.5C 210.608,506.583 213.108,506.916 216,508.5C 219.565,506.947 222.899,507.28 226,509.5C 231.293,507.517 236.793,506.351 242.5,506C 245.266,504.629 247.599,502.796 249.5,500.5C 250.239,500.631 250.906,500.464 251.5,500C 251.93,499.08 252.264,498.247 252.5,497.5C 253.451,498.326 254.451,498.492 255.5,498C 254.346,497.086 254.513,496.253 256,495.5C 257.356,496.38 258.856,496.714 260.5,496.5C 262.202,493.283 264.536,490.45 267.5,488C 269.608,487.64 271.608,486.973 273.5,486C 273.167,485.667 272.833,485.333 272.5,485C 274.134,484.506 275.801,484.34 277.5,484.5C 265.986,496.927 251.986,505.261 235.5,509.5C 227.51,510.499 219.51,511.499 211.5,512.5C 209.26,512.065 207.094,511.398 205,510.5C 202.563,510.776 200.063,511.109 197.5,511.5C 196.304,511.154 196.304,510.654 197.5,510C 194.376,509.521 191.543,508.354 189,506.5C 188.311,507.357 187.478,508.023 186.5,508.5C 181.476,505.77 176.143,503.936 170.5,503C 171.833,501.667 173.167,500.333 174.5,499C 174.167,498.667 173.833,498.333 173.5,498C 170.808,497.57 168.141,497.737 165.5,498.5C 165.719,497.325 165.386,496.325 164.5,495.5C 161.178,491.77 159.345,492.104 159,496.5C 157.992,496.018 156.825,495.852 155.5,496C 156.727,494.413 156.394,493.079 154.5,492C 150.833,489.667 147.167,487.333 143.5,485C 144.536,483.383 145.703,483.216 147,484.5C 147.719,481.83 148.219,479.497 148.5,477.5C 149.086,477.709 149.586,478.043 150,478.5C 150.906,476.388 152.406,475.555 154.5,476C 152.893,477.049 152.227,478.549 152.5,480.5C 154.262,480.357 155.929,480.691 157.5,481.5C 157.833,481.333 158.167,481.167 158.5,481C 156.602,477.638 157.268,477.638 160.5,481C 159.151,482.635 159.318,484.135 161,485.5C 162.897,483.984 165.064,483.317 167.5,483.5C 167.5,484.5 167.5,485.5 167.5,486.5C 162.502,486.604 161.669,488.271 165,491.5C 165.899,489.632 167.399,488.632 169.5,488.5C 174.881,490.419 180.715,492.085 187,493.5C 188.5,493.333 190,493.167 191.5,493C 190.304,492.346 190.304,491.846 191.5,491.5C 196.763,491.914 202.096,491.914 207.5,491.5 Z"/></g>
<g><path style="opacity:1" fill="#1a82dd" d="M 298.5,455.5 C 293.468,466.541 286.468,476.208 277.5,484.5C 275.801,484.34 274.134,484.506 272.5,485C 272.833,485.333 273.167,485.667 273.5,486C 271.608,486.973 269.608,487.64 267.5,488C 264.536,490.45 262.202,493.283 260.5,496.5C 258.856,496.714 257.356,496.38 256,495.5C 254.513,496.253 254.346,497.086 255.5,498C 254.451,498.492 253.451,498.326 252.5,497.5C 252.264,498.247 251.93,499.08 251.5,500C 250.906,500.464 250.239,500.631 249.5,500.5C 246.748,500.301 243.915,499.301 241,497.5C 239.174,498.01 239.007,498.844 240.5,500C 234.412,501.215 228.412,502.715 222.5,504.5C 221.328,504.081 220.328,503.415 219.5,502.5C 217.899,503.165 216.399,503.499 215,503.5C 213.368,501.973 213.201,500.307 214.5,498.5C 216.385,497.391 218.385,496.557 220.5,496C 219.167,495.333 219.167,494.667 220.5,494C 222.833,493.667 225.167,493.333 227.5,493C 226.833,492.667 226.167,492.333 225.5,492C 228.039,489.059 229.372,489.226 229.5,492.5C 233.889,493.82 237.889,492.987 241.5,490C 238.371,489.883 237.205,488.383 238,485.5C 241.353,485.259 244.52,483.926 247.5,481.5C 248.427,482.96 249.427,483.793 250.5,484C 249.556,485.477 248.223,486.477 246.5,487C 247.167,487.333 247.833,487.667 248.5,488C 247.328,488.419 246.328,489.085 245.5,490C 251.899,492.472 257.733,491.639 263,487.5C 263.333,487.833 263.667,488.167 264,488.5C 265.171,487.107 266.671,486.273 268.5,486C 266.161,483.45 266.828,482.95 270.5,484.5C 273.076,480.522 276.742,478.188 281.5,477.5C 285.194,473.641 288.694,469.641 292,465.5C 292.333,463.833 292.667,462.167 293,460.5C 295.276,459.238 297.109,457.571 298.5,455.5 Z"/></g>
<g><path style="opacity:1" fill="#1f8fe6" d="M 277.5,441.5 C 277.286,443.144 277.62,444.644 278.5,446C 275.405,450.372 271.905,454.538 268,458.5C 267.727,460.101 267.227,461.601 266.5,463C 267.308,463.308 267.975,463.808 268.5,464.5C 267.372,465.262 266.205,465.929 265,466.5C 265.979,468.279 265.646,469.945 264,471.5C 263.085,470.672 262.419,469.672 262,468.5C 260.184,469.329 258.351,470.163 256.5,471C 254.466,474.885 251.466,477.385 247.5,478.5C 247.5,479.5 247.5,480.5 247.5,481.5C 244.52,483.926 241.353,485.259 238,485.5C 237.205,488.383 238.371,489.883 241.5,490C 237.889,492.987 233.889,493.82 229.5,492.5C 229.372,489.226 228.039,489.059 225.5,492C 226.167,492.333 226.833,492.667 227.5,493C 225.167,493.333 222.833,493.667 220.5,494C 219.167,494.667 219.167,495.333 220.5,496C 218.385,496.557 216.385,497.391 214.5,498.5C 213.201,500.307 213.368,501.973 215,503.5C 216.399,503.499 217.899,503.165 219.5,502.5C 220.328,503.415 221.328,504.081 222.5,504.5C 228.412,502.715 234.412,501.215 240.5,500C 239.007,498.844 239.174,498.01 241,497.5C 243.915,499.301 246.748,500.301 249.5,500.5C 247.599,502.796 245.266,504.629 242.5,506C 236.793,506.351 231.293,507.517 226,509.5C 222.899,507.28 219.565,506.947 216,508.5C 213.108,506.916 210.608,506.583 208.5,507.5C 210.423,508.308 212.423,508.808 214.5,509C 211.167,509.667 207.833,509.667 204.5,509C 201.342,507.531 198.009,506.531 194.5,506C 191.267,502.987 187.267,500.321 182.5,498C 187.21,497.625 191.877,496.958 196.5,496C 195.304,495.346 195.304,494.846 196.5,494.5C 200.215,495.024 203.715,495.024 207,494.5C 207.419,495.672 208.085,496.672 209,497.5C 210.945,496.137 213.112,495.303 215.5,495C 213.757,493.365 211.923,493.198 210,494.5C 207.205,493.815 204.372,493.315 201.5,493C 203.708,492.809 205.708,492.309 207.5,491.5C 217.889,492.204 227.223,489.537 235.5,483.5C 241.135,480.012 246.802,476.512 252.5,473C 262.877,464.056 271.21,453.556 277.5,441.5 Z"/></g>
</svg>
